<?xml version="1.0" encoding="UTF-8"?>
<!DOCTYPE svg PUBLIC "-//W3C//DTD SVG 1.1//EN" "http://www.w3.org/Graphics/SVG/1.1/DTD/svg11.dtd">
<svg xmlns="http://www.w3.org/2000/svg" version="1.1" width="596px" height="596px" style="shape-rendering:geometricPrecision; text-rendering:geometricPrecision; image-rendering:optimizeQuality; fill-rule:evenodd; clip-rule:evenodd" xmlns:xlink="http://www.w3.org/1999/xlink">
<g><path style="opacity:1" fill="#fefefe" d="M -0.5,-0.5 C 198.167,-0.5 396.833,-0.5 595.5,-0.5C 595.5,198.167 595.5,396.833 595.5,595.5C 396.833,595.5 198.167,595.5 -0.5,595.5C -0.5,396.833 -0.5,198.167 -0.5,-0.5 Z"/></g>
<g><path style="opacity:1" fill="#98999d" d="M 204.5,129.5 C 212.179,129.313 219.845,129.313 227.5,129.5C 228.791,129.263 229.791,129.596 230.5,130.5C 229.761,130.369 229.094,130.536 228.5,131C 229.416,131.278 230.082,131.778 230.5,132.5C 221.878,131.126 213.212,130.126 204.5,129.5 Z"/></g>
<g><path style="opacity:1" fill="#57595e" d="M 203.5,126.5 C 211.562,127.062 219.562,128.062 227.5,129.5C 219.845,129.313 212.179,129.313 204.5,129.5C 204.5,132.5 204.5,135.5 204.5,138.5C 203.517,134.702 203.183,130.702 203.5,126.5 Z"/></g>
<g><path style="opacity:1" fill="#fafbfb" d="M 404.5,222.5 C 404.5,234.5 404.5,246.5 404.5,258.5C 401.476,260.003 398.81,262.17 396.5,265C 399.664,264.879 402.164,263.379 404,260.5C 404.5,268.827 404.666,277.16 404.5,285.5C 401.287,285.19 398.287,285.523 395.5,286.5C 392.813,286.336 390.146,286.503 387.5,287C 386.584,287.278 385.918,287.778 385.5,288.5C 382.833,288.833 380.167,289.167 377.5,289.5C 375.102,289.259 373.102,289.926 371.5,291.5C 371.167,291.5 370.833,291.5 370.5,291.5C 367.084,291.528 364.084,292.528 361.5,294.5C 357.292,294.677 353.626,296.01 350.5,298.5C 348.073,298.523 345.74,299.023 343.5,300C 337.325,302.73 331.325,305.563 325.5,308.5C 318.414,311.685 311.414,315.019 304.5,318.5C 297.046,314.387 289.379,310.72 281.5,307.5C 281.027,306.094 280.027,305.427 278.5,305.5C 277.833,305.5 277.167,305.5 276.5,305.5C 276.027,304.094 275.027,303.427 273.5,303.5C 270.451,302.694 267.451,301.694 264.5,300.5C 262.597,300.204 260.93,299.537 259.5,298.5C 257.898,296.926 255.898,296.259 253.5,296.5C 252.36,295.199 251.027,294.032 249.5,293C 244.58,291.75 239.58,291.25 234.5,291.5C 232.621,290.659 230.621,290.325 228.5,290.5C 224.117,288.77 219.45,287.77 214.5,287.5C 213.833,287.5 213.167,287.5 212.5,287.5C 210.039,286.469 207.373,285.802 204.5,285.5C 204.5,252.833 204.5,220.167 204.5,187.5C 204.5,171.167 204.5,154.833 204.5,138.5C 204.5,135.5 204.5,132.5 204.5,129.5C 213.212,130.126 221.878,131.126 230.5,132.5C 252.522,136.617 273.189,144.284 292.5,155.5C 289.797,157.11 286.797,158.11 283.5,158.5C 282.508,158.328 281.842,158.662 281.5,159.5C 274.999,158.621 268.666,158.621 262.5,159.5C 259.848,159.41 257.515,160.076 255.5,161.5C 254.778,161.918 254.278,162.584 254,163.5C 252.774,161.452 251.274,161.119 249.5,162.5C 248.833,162.5 248.167,162.5 247.5,162.5C 245.901,162.232 244.568,162.566 243.5,163.5C 242.833,163.5 242.5,163.833 242.5,164.5C 241.596,165.209 241.263,166.209 241.5,167.5C 239.901,167.232 238.568,167.566 237.5,168.5C 236.833,168.5 236.5,168.833 236.5,169.5C 235.121,170.609 233.455,171.276 231.5,171.5C 228.824,171.163 226.157,170.83 223.5,170.5C 223.389,169.883 223.056,169.383 222.5,169C 219.633,168.199 216.966,168.366 214.5,169.5C 212.973,169.427 211.973,170.094 211.5,171.5C 211.5,171.833 211.5,172.167 211.5,172.5C 210.602,173.158 209.602,173.824 208.5,174.5C 209.127,175.417 209.461,176.417 209.5,177.5C 207.748,177.418 206.748,178.251 206.5,180C 206.836,181.03 207.503,181.53 208.5,181.5C 208.489,183.017 207.823,184.184 206.5,185C 208.352,185.773 209.686,185.273 210.5,183.5C 214.724,180.569 218.557,180.902 222,184.5C 225.906,191.982 227.572,199.982 227,208.5C 229.231,213.294 231.731,217.961 234.5,222.5C 235.622,223.63 236.956,224.297 238.5,224.5C 240.562,225.776 242.896,226.61 245.5,227C 246.733,228.667 248.067,230.167 249.5,231.5C 251.219,232.022 252.552,233.022 253.5,234.5C 251.653,237.594 251.153,240.928 252,244.5C 253.763,247.02 255.763,249.353 258,251.5C 258.359,259.212 257.859,266.878 256.5,274.5C 256.667,276.833 256.833,279.167 257,281.5C 257.383,282.056 257.883,282.389 258.5,282.5C 258.62,283.586 259.287,284.253 260.5,284.5C 261.167,284.167 261.833,283.833 262.5,283.5C 261.234,282.638 259.901,281.971 258.5,281.5C 260.31,278.476 261.477,275.142 262,271.5C 262.708,270.619 263.542,269.953 264.5,269.5C 266.027,269.573 267.027,268.906 267.5,267.5C 271.393,260.108 275.893,253.108 281,246.5C 281.877,244.326 281.377,242.659 279.5,241.5C 277.434,239.801 275.1,238.468 272.5,237.5C 270.349,234.009 267.349,231.675 263.5,230.5C 262.666,229.252 261.333,228.585 259.5,228.5C 258.167,228.667 256.833,228.833 255.5,229C 254.944,229.383 254.611,229.883 254.5,230.5C 253.833,230.5 253.167,230.5 252.5,230.5C 250.787,229.365 250.12,227.698 250.5,225.5C 249.766,224.292 249.433,222.959 249.5,221.5C 250.959,221.433 252.292,221.766 253.5,222.5C 255.676,224.299 258.01,224.632 260.5,223.5C 259.757,222.818 259.091,222.151 258.5,221.5C 257.177,219.529 255.844,217.529 254.5,215.5C 256.449,213.208 257.449,210.541 257.5,207.5C 261.054,206.231 264.054,204.231 266.5,201.5C 266.5,201.167 266.5,200.833 266.5,200.5C 268.379,199.659 270.379,199.325 272.5,199.5C 272.737,198.209 272.404,197.209 271.5,196.5C 271.011,195.005 270.345,193.671 269.5,192.5C 268.833,191.5 268.167,190.5 267.5,189.5C 267.325,187.379 267.659,185.379 268.5,183.5C 269.014,181.488 269.18,179.488 269,177.5C 266.963,175.294 264.797,173.294 262.5,171.5C 261.89,170.609 261.557,169.609 261.5,168.5C 261.328,167.508 261.662,166.842 262.5,166.5C 264.925,164.881 266.925,165.214 268.5,167.5C 270.848,167.592 272.514,168.592 273.5,170.5C 274.219,172.764 274.552,175.097 274.5,177.5C 274.337,179.857 274.503,182.19 275,184.5C 276.356,185.38 277.856,185.714 279.5,185.5C 279.088,183.027 280.088,181.694 282.5,181.5C 284.315,180.37 286.315,179.704 288.5,179.5C 288.263,180.791 288.596,181.791 289.5,182.5C 292.113,183.993 294.113,183.326 295.5,180.5C 293.282,179.984 291.282,178.984 289.5,177.5C 291.854,175.754 292.854,173.421 292.5,170.5C 292.5,170.167 292.5,169.833 292.5,169.5C 294.127,167.426 295.627,165.093 297,162.5C 297.333,162.833 297.667,163.167 298,163.5C 298.492,162.451 298.326,161.451 297.5,160.5C 300.651,159.908 303.651,159.574 306.5,159.5C 330.007,146.08 355.007,136.58 381.5,131C 389.201,130.4 396.868,129.566 404.5,128.5C 404.5,159.833 404.5,191.167 404.5,222.5 Z"/></g>
<g><path style="opacity:1" fill="#717377" d="M 230.5,130.5 C 239.232,132.35 247.899,134.516 256.5,137C 272.213,143.024 287.547,149.858 302.5,157.5C 298.964,158.78 295.631,158.113 292.5,155.5C 273.189,144.284 252.522,136.617 230.5,132.5C 230.082,131.778 229.416,131.278 228.5,131C 229.094,130.536 229.761,130.369 230.5,130.5 Z"/></g>
<g><path style="opacity:1" fill="#7d8085" d="M 419.5,140.5 C 419.5,140.833 419.5,141.167 419.5,141.5C 414.833,141.5 410.167,141.5 405.5,141.5C 405.5,168.5 405.5,195.5 405.5,222.5C 405.167,222.5 404.833,222.5 404.5,222.5C 404.5,191.167 404.5,159.833 404.5,128.5C 396.868,129.566 389.201,130.4 381.5,131C 355.007,136.58 330.007,146.08 306.5,159.5C 305.508,159.672 304.842,159.338 304.5,158.5C 335.774,139.181 369.774,128.514 406.5,126.5C 406.5,131.167 406.5,135.833 406.5,140.5C 410.833,140.5 415.167,140.5 419.5,140.5 Z"/></g>
<g><path style="opacity:1" fill="#4e535b" d="M 281.5,159.5 C 281.842,158.662 282.508,158.328 283.5,158.5C 287.182,158.335 290.848,158.501 294.5,159C 295.791,160.292 295.791,161.458 294.5,162.5C 294.209,161.351 293.376,160.684 292,160.5C 288.542,159.714 285.042,159.38 281.5,159.5 Z"/></g>
<g><path style="opacity:1" fill="#7a828a" d="M 203.5,126.5 C 203.183,130.702 203.517,134.702 204.5,138.5C 204.5,154.833 204.5,171.167 204.5,187.5C 204.167,187.5 203.833,187.5 203.5,187.5C 203.83,171.991 203.496,156.658 202.5,141.5C 202.179,136.305 202.513,131.305 203.5,126.5 Z"/></g>
<g><path style="opacity:1" fill="#75787f" d="M 262.5,159.5 C 261.602,160.158 260.602,160.824 259.5,161.5C 262.158,163.697 261.825,165.364 258.5,166.5C 257.9,165.1 256.9,164.1 255.5,163.5C 258.167,162.833 258.167,162.167 255.5,161.5C 257.515,160.076 259.848,159.41 262.5,159.5 Z"/></g>
<g><path style="opacity:1" fill="#e0e2e6" d="M 292.5,155.5 C 295.631,158.113 298.964,158.78 302.5,157.5C 303.167,157.833 303.833,158.167 304.5,158.5C 304.842,159.338 305.508,159.672 306.5,159.5C 303.651,159.574 300.651,159.908 297.5,160.5C 298.326,161.451 298.492,162.451 298,163.5C 297.667,163.167 297.333,162.833 297,162.5C 295.627,165.093 294.127,167.426 292.5,169.5C 292.394,166.921 293.061,164.588 294.5,162.5C 295.791,161.458 295.791,160.292 294.5,159C 290.848,158.501 287.182,158.335 283.5,158.5C 286.797,158.11 289.797,157.11 292.5,155.5 Z"/></g>
<g><path style="opacity:1" fill="#161b26" d="M 262.5,159.5 C 265.572,159.183 268.572,159.516 271.5,160.5C 268.262,162.275 265.262,164.275 262.5,166.5C 261.662,166.842 261.328,167.508 261.5,168.5C 260.5,168.5 259.5,168.5 258.5,168.5C 258.5,167.833 258.5,167.167 258.5,166.5C 261.825,165.364 262.158,163.697 259.5,161.5C 260.602,160.824 261.602,160.158 262.5,159.5 Z"/></g>
<g><path style="opacity:1" fill="#1f2128" d="M 255.5,161.5 C 258.167,162.167 258.167,162.833 255.5,163.5C 255.5,162.833 255.5,162.167 255.5,161.5 Z"/></g>
<g><path style="opacity:1" fill="#0f1623" d="M 281.5,159.5 C 285.042,159.38 288.542,159.714 292,160.5C 293.376,160.684 294.209,161.351 294.5,162.5C 293.061,164.588 292.394,166.921 292.5,169.5C 292.5,169.833 292.5,170.167 292.5,170.5C 289.903,174.767 286.57,178.434 282.5,181.5C 280.088,181.694 279.088,183.027 279.5,185.5C 277.856,185.714 276.356,185.38 275,184.5C 274.503,182.19 274.337,179.857 274.5,177.5C 275.147,176.726 275.48,175.726 275.5,174.5C 275.66,172.645 274.993,171.312 273.5,170.5C 272.514,168.592 270.848,167.592 268.5,167.5C 269.568,165.26 271.234,163.426 273.5,162C 276.379,161.454 279.046,160.621 281.5,159.5 Z"/></g>
<g><path style="opacity:1" fill="#abaeb6" d="M 262.5,159.5 C 268.666,158.621 274.999,158.621 281.5,159.5C 279.046,160.621 276.379,161.454 273.5,162C 271.234,163.426 269.568,165.26 268.5,167.5C 266.925,165.214 264.925,164.881 262.5,166.5C 265.262,164.275 268.262,162.275 271.5,160.5C 268.572,159.516 265.572,159.183 262.5,159.5 Z"/></g>
<g><path style="opacity:1" fill="#999ca1" d="M 350.5,163.5 C 349.474,164.853 348.141,165.853 346.5,166.5C 346.112,164.315 345.112,162.482 343.5,161C 343.833,160.5 344.167,160 344.5,159.5C 346.711,160.66 348.711,161.993 350.5,163.5 Z"/></g>
<g><path style="opacity:1" fill="#868b91" d="M 350.5,163.5 C 352.153,163.66 353.486,164.326 354.5,165.5C 352.62,165.771 351.287,165.104 350.5,163.5 Z"/></g>
<g><path style="opacity:1" fill="#6d6f72" d="M 367.5,163.5 C 375.348,163.585 375.348,164.251 367.5,165.5C 367.5,164.833 367.5,164.167 367.5,163.5 Z"/></g>
<g><path style="opacity:1" fill="#4f505a" d="M 258.5,166.5 C 258.5,167.167 258.5,167.833 258.5,168.5C 255.833,168.5 253.167,168.5 250.5,168.5C 252.488,165.622 255.154,164.955 258.5,166.5 Z"/></g>
<g><path style="opacity:1" fill="#54575c" d="M 243.5,163.5 C 245.048,163.821 245.715,164.821 245.5,166.5C 246.675,166.281 247.675,166.614 248.5,167.5C 245.193,169.17 243.193,168.17 242.5,164.5C 242.5,163.833 242.833,163.5 243.5,163.5 Z"/></g>
<g><path style="opacity:1" fill="#d1d4d7" d="M 367.5,163.5 C 369.607,162.532 371.941,162.198 374.5,162.5C 374.365,164.554 375.032,166.221 376.5,167.5C 373.235,167.208 370.235,167.875 367.5,169.5C 364.217,168.673 360.884,168.34 357.5,168.5C 356.167,167.833 355.167,166.833 354.5,165.5C 356.893,166.95 359.56,167.617 362.5,167.5C 364.64,167.444 366.306,166.777 367.5,165.5C 375.348,164.251 375.348,163.585 367.5,163.5 Z"/></g>
<g><path style="opacity:1" fill="#b1b4b9" d="M 214.5,169.5 C 216.966,168.366 219.633,168.199 222.5,169C 223.056,169.383 223.389,169.883 223.5,170.5C 220.518,170.037 217.518,169.704 214.5,169.5 Z"/></g>
<g><path style="opacity:1" fill="#93969d" d="M 258.5,168.5 C 259.5,168.5 260.5,168.5 261.5,168.5C 261.557,169.609 261.89,170.609 262.5,171.5C 260.856,171.286 259.356,171.62 258,172.5C 256.886,168.544 256.053,168.544 255.5,172.5C 254.778,171.449 253.778,170.782 252.5,170.5C 251.5,170.5 250.5,170.5 249.5,170.5C 249.833,169.833 250.167,169.167 250.5,168.5C 253.167,168.5 255.833,168.5 258.5,168.5 Z"/></g>
<g><path style="opacity:1" fill="#bec0c4" d="M 255.5,161.5 C 255.5,162.167 255.5,162.833 255.5,163.5C 256.9,164.1 257.9,165.1 258.5,166.5C 255.154,164.955 252.488,165.622 250.5,168.5C 250.167,169.167 249.833,169.833 249.5,170.5C 249.286,172.144 249.62,173.644 250.5,175C 248.934,175.765 247.601,175.598 246.5,174.5C 247.11,173.609 247.443,172.609 247.5,171.5C 244.424,169.945 241.091,168.945 237.5,168.5C 238.568,167.566 239.901,167.232 241.5,167.5C 241.263,166.209 241.596,165.209 242.5,164.5C 243.193,168.17 245.193,169.17 248.5,167.5C 247.675,166.614 246.675,166.281 245.5,166.5C 245.715,164.821 245.048,163.821 243.5,163.5C 244.568,162.566 245.901,162.232 247.5,162.5C 248.167,165.167 248.833,165.167 249.5,162.5C 251.274,161.119 252.774,161.452 254,163.5C 254.278,162.584 254.778,161.918 255.5,161.5 Z"/></g>
<g><path style="opacity:1" fill="#4d4d4e" d="M 247.5,162.5 C 248.167,162.5 248.833,162.5 249.5,162.5C 248.833,165.167 248.167,165.167 247.5,162.5 Z"/></g>
<g><path style="opacity:1" fill="#6b7074" d="M 332.5,170.5 C 330.39,171.453 329.223,173.119 329,175.5C 328.517,174.552 328.351,173.552 328.5,172.5C 329.309,168.981 331.309,167.648 334.5,168.5C 333.757,169.182 333.091,169.849 332.5,170.5 Z"/></g>
<g><path style="opacity:1" fill="#6b7278" d="M 214.5,169.5 C 214.027,170.906 213.027,171.573 211.5,171.5C 211.973,170.094 212.973,169.427 214.5,169.5 Z"/></g>
<g><path style="opacity:1" fill="#2f3543" d="M 376.5,167.5 C 381.671,168.638 387.005,168.638 392.5,167.5C 393.833,167.667 395.167,167.833 396.5,168C 397.056,168.383 397.389,168.883 397.5,169.5C 389.597,169.711 381.764,169.711 374,169.5C 371.991,170.604 369.824,171.271 367.5,171.5C 363.88,171.041 360.547,170.041 357.5,168.5C 360.884,168.34 364.217,168.673 367.5,169.5C 370.235,167.875 373.235,167.208 376.5,167.5 Z"/></g>
<g><path style="opacity:1" fill="#9fa5ac" d="M 236.5,169.5 C 237.209,170.404 238.209,170.737 239.5,170.5C 239.715,172.179 239.048,173.179 237.5,173.5C 233.688,172.676 229.688,172.176 225.5,172C 224.584,171.722 223.918,171.222 223.5,170.5C 226.157,170.83 228.824,171.163 231.5,171.5C 233.455,171.276 235.121,170.609 236.5,169.5 Z"/></g>
<g><path style="opacity:1" fill="#c1c3ca" d="M 252.5,170.5 C 253.778,170.782 254.778,171.449 255.5,172.5C 256.502,174.011 257.169,175.678 257.5,177.5C 255.784,177.371 254.117,177.038 252.5,176.5C 253.833,174.5 253.833,172.5 252.5,170.5 Z"/></g>
<g><path style="opacity:1" fill="#7e838d" d="M 336.5,172.5 C 337.833,171.167 339.167,171.167 340.5,172.5C 339.836,173.648 339.669,174.981 340,176.5C 339.051,174.907 337.885,173.574 336.5,172.5 Z"/></g>
<g><path style="opacity:1" fill="#444a56" d="M 237.5,168.5 C 241.091,168.945 244.424,169.945 247.5,171.5C 245.167,171.5 242.833,171.5 240.5,171.5C 240.5,172.5 240.5,173.5 240.5,174.5C 242.5,174.5 244.5,174.5 246.5,174.5C 247.601,175.598 248.934,175.765 250.5,175C 249.62,173.644 249.286,172.144 249.5,170.5C 250.5,170.5 251.5,170.5 252.5,170.5C 253.833,172.5 253.833,174.5 252.5,176.5C 248.102,176.706 243.768,176.373 239.5,175.5C 238.5,175.167 237.833,174.5 237.5,173.5C 239.048,173.179 239.715,172.179 239.5,170.5C 238.209,170.737 237.209,170.404 236.5,169.5C 236.5,168.833 236.833,168.5 237.5,168.5 Z"/></g>
<g><path style="opacity:1" fill="#121929" d="M 247.5,171.5 C 247.443,172.609 247.11,173.609 246.5,174.5C 244.5,174.5 242.5,174.5 240.5,174.5C 240.5,173.5 240.5,172.5 240.5,171.5C 242.833,171.5 245.167,171.5 247.5,171.5 Z"/></g>
<g><path style="opacity:1" fill="#515a63" d="M 211.5,172.5 C 212.833,174.824 212.166,176.491 209.5,177.5C 209.461,176.417 209.127,175.417 208.5,174.5C 209.602,173.824 210.602,173.158 211.5,172.5 Z"/></g>
<g><path style="opacity:1" fill="#9da1a9" d="M 273.5,170.5 C 274.993,171.312 275.66,172.645 275.5,174.5C 275.48,175.726 275.147,176.726 274.5,177.5C 274.552,175.097 274.219,172.764 273.5,170.5 Z"/></g>
<g><path style="opacity:1" fill="#c4c7cd" d="M 332.5,170.5 C 331.962,172.117 331.629,173.784 331.5,175.5C 333.167,175.5 334.833,175.5 336.5,175.5C 333.31,176.672 329.977,177.672 326.5,178.5C 327.048,176.374 327.715,174.374 328.5,172.5C 328.351,173.552 328.517,174.552 329,175.5C 329.223,173.119 330.39,171.453 332.5,170.5 Z"/></g>
<g><path style="opacity:1" fill="#1f2634" d="M 262.5,171.5 C 264.797,173.294 266.963,175.294 269,177.5C 269.18,179.488 269.014,181.488 268.5,183.5C 265.137,185.161 262.803,184.161 261.5,180.5C 264.243,177.394 263.576,175.394 259.5,174.5C 259.854,177.421 258.854,179.754 256.5,181.5C 253.848,182.475 251.514,183.808 249.5,185.5C 249.5,186.5 249.5,187.5 249.5,188.5C 248.609,187.739 247.942,186.739 247.5,185.5C 248.593,183.651 249.926,181.984 251.5,180.5C 248.209,178.279 244.543,177.113 240.5,177C 239.944,176.617 239.611,176.117 239.5,175.5C 243.768,176.373 248.102,176.706 252.5,176.5C 254.117,177.038 255.784,177.371 257.5,177.5C 257.169,175.678 256.502,174.011 255.5,172.5C 256.053,168.544 256.886,168.544 258,172.5C 259.356,171.62 260.856,171.286 262.5,171.5 Z"/></g>
<g><path style="opacity:1" fill="#cdcfd3" d="M 292.5,170.5 C 292.854,173.421 291.854,175.754 289.5,177.5C 291.282,178.984 293.282,179.984 295.5,180.5C 292.918,180.025 290.918,180.692 289.5,182.5C 288.596,181.791 288.263,180.791 288.5,179.5C 286.315,179.704 284.315,180.37 282.5,181.5C 286.57,178.434 289.903,174.767 292.5,170.5 Z"/></g>
<g><path style="opacity:1" fill="#0d1627" d="M 350.5,163.5 C 351.287,165.104 352.62,165.771 354.5,165.5C 355.167,166.833 356.167,167.833 357.5,168.5C 360.547,170.041 363.88,171.041 367.5,171.5C 369.824,171.271 371.991,170.604 374,169.5C 381.764,169.711 389.597,169.711 397.5,169.5C 400.018,170.694 400.018,171.86 397.5,173C 398.517,174.049 398.684,175.216 398,176.5C 396.591,177.781 395.091,178.781 393.5,179.5C 392.5,179.5 391.5,179.5 390.5,179.5C 390.44,178.957 390.107,178.624 389.5,178.5C 388.066,179.588 387.066,180.922 386.5,182.5C 379.957,183.13 378.957,185.797 383.5,190.5C 383.5,192.167 383.5,193.833 383.5,195.5C 382.811,198.353 381.478,200.853 379.5,203C 380.547,204.578 380.547,206.078 379.5,207.5C 378.702,207.043 378.369,206.376 378.5,205.5C 377.29,202.111 375.623,201.777 373.5,204.5C 373.942,205.739 374.609,206.739 375.5,207.5C 375.5,207.833 375.5,208.167 375.5,208.5C 375.966,212.162 375.299,215.495 373.5,218.5C 370.633,218.369 368.967,219.703 368.5,222.5C 368.657,223.873 368.49,225.207 368,226.5C 366.89,224.963 365.39,224.297 363.5,224.5C 363.36,222.876 364.027,221.71 365.5,221C 363.519,220.395 363.185,219.395 364.5,218C 359.672,217.394 359.672,216.061 364.5,214C 362.971,211.347 361.804,208.514 361,205.5C 359.675,207.993 357.509,209.16 354.5,209C 352.699,209.317 352.366,209.984 353.5,211C 351.973,212.368 350.473,212.868 349,212.5C 348.814,214.9 348.314,217.234 347.5,219.5C 346.029,218.619 345.196,217.286 345,215.5C 344.667,216.167 344.333,216.833 344,217.5C 342.956,216.377 342.29,215.044 342,213.5C 341,214.833 340,214.833 339,213.5C 337.872,211.655 337.372,209.655 337.5,207.5C 338.675,207.719 339.675,207.386 340.5,206.5C 339.609,205.41 338.609,205.41 337.5,206.5C 336.548,208.045 336.215,209.712 336.5,211.5C 334.516,211.383 332.85,212.05 331.5,213.5C 329.105,211.877 327.772,209.544 327.5,206.5C 326.397,206.002 325.397,205.669 324.5,205.5C 326.021,201.158 325.354,200.658 322.5,204C 321.207,204.49 319.873,204.657 318.5,204.5C 317.761,204.631 317.094,204.464 316.5,204C 317.863,201.871 317.529,201.371 315.5,202.5C 313.873,200.397 311.873,200.064 309.5,201.5C 307.133,201.158 304.8,200.658 302.5,200C 304.158,198.376 305.825,196.709 307.5,195C 309.441,194.257 311.274,194.424 313,195.5C 316.758,192.711 319.924,189.377 322.5,185.5C 321.398,184.824 320.398,184.158 319.5,183.5C 321.989,183.759 323.656,182.759 324.5,180.5C 325.167,179.833 325.833,179.167 326.5,178.5C 329.977,177.672 333.31,176.672 336.5,175.5C 336.5,174.5 336.5,173.5 336.5,172.5C 337.885,173.574 339.051,174.907 340,176.5C 339.669,174.981 339.836,173.648 340.5,172.5C 341.117,172.611 341.617,172.944 342,173.5C 343.329,171.015 344.829,168.681 346.5,166.5C 348.141,165.853 349.474,164.853 350.5,163.5 Z"/></g>
<g><path style="opacity:1" fill="#525860" d="M 209.5,177.5 C 208.766,178.708 208.433,180.041 208.5,181.5C 207.503,181.53 206.836,181.03 206.5,180C 206.748,178.251 207.748,177.418 209.5,177.5 Z"/></g>
<g><path style="opacity:1" fill="#575e69" d="M 319.5,178.5 C 321.554,178.365 323.221,179.032 324.5,180.5C 323.656,182.759 321.989,183.759 319.5,183.5C 318.167,181.833 318.167,180.167 319.5,178.5 Z"/></g>
<g><path style="opacity:1" fill="#c4c6cc" d="M 268.5,183.5 C 267.659,185.379 267.325,187.379 267.5,189.5C 266.71,188.391 266.21,187.058 266,185.5C 265.667,186.5 265.333,187.5 265,188.5C 263.331,185.073 260.831,184.073 257.5,185.5C 256.828,184.733 255.995,184.066 255,183.5C 253.275,184.464 251.441,185.131 249.5,185.5C 251.514,183.808 253.848,182.475 256.5,181.5C 258.854,179.754 259.854,177.421 259.5,174.5C 263.576,175.394 264.243,177.394 261.5,180.5C 262.803,184.161 265.137,185.161 268.5,183.5 Z"/></g>
<g><path style="opacity:1" fill="#242e39" d="M 428.5,149.5 C 428.168,186.004 428.502,222.337 429.5,258.5C 428.266,261.465 428.266,264.465 429.5,267.5C 428.833,273.5 428.167,279.5 427.5,285.5C 427.168,239.997 427.501,194.664 428.5,149.5 Z"/></g>
<g><path style="opacity:1" fill="#0f182a" d="M 214.5,169.5 C 217.518,169.704 220.518,170.037 223.5,170.5C 223.918,171.222 224.584,171.722 225.5,172C 229.688,172.176 233.688,172.676 237.5,173.5C 237.833,174.5 238.5,175.167 239.5,175.5C 239.611,176.117 239.944,176.617 240.5,177C 244.543,177.113 248.209,178.279 251.5,180.5C 249.926,181.984 248.593,183.651 247.5,185.5C 247.942,186.739 248.609,187.739 249.5,188.5C 249.833,189.167 250.167,189.833 250.5,190.5C 250.604,192.973 251.604,193.639 253.5,192.5C 256.539,193.278 259.206,194.612 261.5,196.5C 260.535,202 257.535,203.833 252.5,202C 254.032,202.7 255.032,203.866 255.5,205.5C 254.691,207.071 254.357,208.738 254.5,210.5C 252.54,211.138 250.707,211.138 249,210.5C 248.383,211.449 248.549,212.282 249.5,213C 247.942,213.21 246.609,213.71 245.5,214.5C 243.61,214.297 242.11,214.963 241,216.5C 240.444,218.885 240.61,221.218 241.5,223.5C 240.791,224.404 239.791,224.737 238.5,224.5C 236.956,224.297 235.622,223.63 234.5,222.5C 231.731,217.961 229.231,213.294 227,208.5C 227.572,199.982 225.906,191.982 222,184.5C 218.557,180.902 214.724,180.569 210.5,183.5C 209.833,182.833 209.167,182.167 208.5,181.5C 208.433,180.041 208.766,178.708 209.5,177.5C 212.166,176.491 212.833,174.824 211.5,172.5C 211.5,172.167 211.5,171.833 211.5,171.5C 213.027,171.573 214.027,170.906 214.5,169.5 Z"/></g>
<g><path style="opacity:1" fill="#676b6f" d="M 295.5,180.5 C 294.113,183.326 292.113,183.993 289.5,182.5C 290.918,180.692 292.918,180.025 295.5,180.5 Z"/></g>
<g><path style="opacity:1" fill="#181f2b" d="M 319.5,178.5 C 318.167,180.167 318.167,181.833 319.5,183.5C 320.398,184.158 321.398,184.824 322.5,185.5C 319.924,189.377 316.758,192.711 313,195.5C 311.274,194.424 309.441,194.257 307.5,195C 305.825,196.709 304.158,198.376 302.5,200C 304.8,200.658 307.133,201.158 309.5,201.5C 311.873,200.064 313.873,200.397 315.5,202.5C 317.529,201.371 317.863,201.871 316.5,204C 317.094,204.464 317.761,204.631 318.5,204.5C 320.493,205.472 320.826,206.805 319.5,208.5C 317.917,206.137 316.084,206.137 314,208.5C 313.837,206.324 313.004,204.491 311.5,203C 309.025,203.257 309.025,204.257 311.5,206C 309.588,206.279 308.254,205.446 307.5,203.5C 304.92,201.984 302.92,202.651 301.5,205.5C 300.358,207.972 298.358,208.972 295.5,208.5C 295.5,206.5 295.5,204.5 295.5,202.5C 296.833,202.5 298.167,202.5 299.5,202.5C 300.451,201.081 300.784,199.415 300.5,197.5C 301.791,197.737 302.791,197.404 303.5,196.5C 304.833,195.5 306.167,194.5 307.5,193.5C 309.735,193.795 311.735,193.461 313.5,192.5C 314.29,191.206 315.29,190.039 316.5,189C 314.462,187.764 313.295,185.931 313,183.5C 311.711,185.645 310.878,187.978 310.5,190.5C 309.5,190.5 308.5,190.5 307.5,190.5C 306.418,189.406 305.752,188.073 305.5,186.5C 307.183,181.653 310.35,178.319 315,176.5C 316.833,176.519 318.333,177.185 319.5,178.5 Z"/></g>
<g><path style="opacity:1" fill="#2d363e" d="M 390.5,179.5 C 391.5,179.5 392.5,179.5 393.5,179.5C 392.305,181.773 392.305,184.106 393.5,186.5C 393.547,188 392.881,189 391.5,189.5C 389.209,186.404 388.875,183.071 390.5,179.5 Z"/></g>
<g><path style="opacity:1" fill="#9fa6ae" d="M 437.5,149.5 C 434.5,149.5 431.5,149.5 428.5,149.5C 427.501,194.664 427.168,239.997 427.5,285.5C 427.826,294.017 427.493,302.35 426.5,310.5C 426.5,256.5 426.5,202.5 426.5,148.5C 430.371,148.185 434.038,148.518 437.5,149.5 Z"/></g>
<g><path style="opacity:1" fill="#8e9398" d="M 208.5,181.5 C 209.167,182.167 209.833,182.833 210.5,183.5C 209.686,185.273 208.352,185.773 206.5,185C 207.823,184.184 208.489,183.017 208.5,181.5 Z"/></g>
<g><path style="opacity:1" fill="#f2f3f5" d="M 257.5,185.5 C 257.852,188.073 257.352,190.406 256,192.5C 255.29,191.027 254.124,190.36 252.5,190.5C 252.027,189.094 251.027,188.427 249.5,188.5C 249.5,187.5 249.5,186.5 249.5,185.5C 251.441,185.131 253.275,184.464 255,183.5C 255.995,184.066 256.828,184.733 257.5,185.5 Z"/></g>
<g><path style="opacity:1" fill="#101d2d" d="M 169.5,152.5 C 169.5,151.833 169.833,151.5 170.5,151.5C 174.099,150.656 177.766,150.323 181.5,150.5C 181.833,192.839 181.5,235.172 180.5,277.5C 179.833,276.833 179.167,276.167 178.5,275.5C 177.575,276.641 176.741,276.641 176,275.5C 175,276.833 174,278.167 173,279.5C 172.301,281.074 172.635,282.407 174,283.5C 175.049,282.483 176.216,282.316 177.5,283C 174.86,283.896 172.693,285.396 171,287.5C 170.501,291.152 170.335,294.818 170.5,298.5C 173.91,298.384 175.244,300.05 174.5,303.5C 175.822,303.67 176.989,303.337 178,302.5C 181.552,305.879 180.718,307.546 175.5,307.5C 174.667,311.032 174,314.365 173.5,317.5C 174.693,319.384 176.359,319.884 178.5,319C 175.833,317.667 175.833,316.333 178.5,315C 175.934,313.374 176.101,311.874 179,310.5C 182.279,312.83 185.946,314.164 190,314.5C 193.942,313.971 197.775,313.971 201.5,314.5C 204.028,315.517 204.028,316.684 201.5,318C 202,318.167 202.5,318.333 203,318.5C 204.416,317.427 205.75,317.427 207,318.5C 208.188,317.437 208.688,316.103 208.5,314.5C 212.271,314.906 215.938,315.739 219.5,317C 213.108,317.628 212.941,319.128 219,321.5C 219.833,320.667 220.667,319.833 221.5,319C 220.289,318.107 220.289,317.274 221.5,316.5C 222.429,317.689 222.762,319.022 222.5,320.5C 224.144,320.714 225.644,320.38 227,319.5C 227.5,320 228,320.5 228.5,321C 232.713,321.345 236.879,322.178 241,323.5C 243,322.833 244.333,321.5 245,319.5C 247.361,320.512 250.028,320.179 253,318.5C 253.692,319.025 254.192,319.692 254.5,320.5C 253.05,321.85 252.383,323.516 252.5,325.5C 250.801,325.62 249.135,325.954 247.5,326.5C 245.399,326.368 243.899,325.368 243,323.5C 242.517,324.448 242.351,325.448 242.5,326.5C 235.744,325.744 229.244,325.744 223,326.5C 220.485,326.158 218.652,324.825 217.5,322.5C 216.481,323.687 215.314,324.687 214,325.5C 213.667,325.167 213.333,324.833 213,324.5C 204.501,326.09 195.834,327.09 187,327.5C 186.225,325.777 184.892,324.777 183,324.5C 177.586,327.575 173.252,326.575 170,321.5C 169.5,265.168 169.333,208.834 169.5,152.5 Z"/></g>
<g><path style="opacity:1" fill="#182130" d="M 267.5,189.5 C 268.167,190.5 268.833,191.5 269.5,192.5C 269.5,193.5 269.5,194.5 269.5,195.5C 267.901,195.232 266.568,195.566 265.5,196.5C 263.926,198.102 263.259,200.102 263.5,202.5C 261.916,203.382 260.249,204.215 258.5,205C 257.748,205.671 257.414,206.504 257.5,207.5C 256.792,209.378 255.626,211.045 254,212.5C 254.011,218.606 252.511,219.439 249.5,215C 248.207,214.51 246.873,214.343 245.5,214.5C 246.609,213.71 247.942,213.21 249.5,213C 248.549,212.282 248.383,211.449 249,210.5C 250.707,211.138 252.54,211.138 254.5,210.5C 254.357,208.738 254.691,207.071 255.5,205.5C 255.032,203.866 254.032,202.7 252.5,202C 257.535,203.833 260.535,202 261.5,196.5C 259.206,194.612 256.539,193.278 253.5,192.5C 251.604,193.639 250.604,192.973 250.5,190.5C 251.167,190.5 251.833,190.5 252.5,190.5C 254.124,190.36 255.29,191.027 256,192.5C 257.352,190.406 257.852,188.073 257.5,185.5C 260.831,184.073 263.331,185.073 265,188.5C 265.333,187.5 265.667,186.5 266,185.5C 266.21,187.058 266.71,188.391 267.5,189.5 Z"/></g>
<g><path style="opacity:1" fill="#bfc2c7" d="M 386.5,182.5 C 385.412,184 384.079,185.333 382.5,186.5C 383.63,187.622 384.297,188.956 384.5,190.5C 384.167,190.5 383.833,190.5 383.5,190.5C 378.957,185.797 379.957,183.13 386.5,182.5 Z"/></g>
<g><path style="opacity:1" fill="#8f9397" d="M 298.5,188.5 C 299.209,187.596 300.209,187.263 301.5,187.5C 301.5,189.167 301.5,190.833 301.5,192.5C 300.978,190.781 299.978,189.448 298.5,188.5 Z"/></g>
<g><path style="opacity:1" fill="#cbcfd5" d="M 313.5,192.5 C 311.821,192.715 310.821,192.048 310.5,190.5C 310.878,187.978 311.711,185.645 313,183.5C 313.295,185.931 314.462,187.764 316.5,189C 315.29,190.039 314.29,191.206 313.5,192.5 Z"/></g>
<g><path style="opacity:1" fill="#858891" d="M 249.5,188.5 C 251.027,188.427 252.027,189.094 252.5,190.5C 251.833,190.5 251.167,190.5 250.5,190.5C 250.167,189.833 249.833,189.167 249.5,188.5 Z"/></g>
<g><path style="opacity:1" fill="#353a41" d="M 298.5,188.5 C 299.978,189.448 300.978,190.781 301.5,192.5C 302.11,193.391 302.443,194.391 302.5,195.5C 300.621,196.341 298.621,196.675 296.5,196.5C 295.218,195.292 295.218,193.958 296.5,192.5C 297.167,193.167 297.833,193.833 298.5,194.5C 298.833,194 299.167,193.5 299.5,193C 298.833,192 298.167,191 297.5,190C 297.57,189.235 297.903,188.735 298.5,188.5 Z"/></g>
<g><path style="opacity:1" fill="#5a616c" d="M 307.5,190.5 C 308.5,190.5 309.5,190.5 310.5,190.5C 310.821,192.048 311.821,192.715 313.5,192.5C 311.735,193.461 309.735,193.795 307.5,193.5C 308.833,192.5 308.833,191.5 307.5,190.5 Z"/></g>
<g><path style="opacity:1" fill="#60646d" d="M 383.5,190.5 C 383.833,190.5 384.167,190.5 384.5,190.5C 385.461,192.265 385.795,194.265 385.5,196.5C 384.833,196.167 384.167,195.833 383.5,195.5C 383.5,193.833 383.5,192.167 383.5,190.5 Z"/></g>
<g><path style="opacity:1" fill="#3b4046" d="M 269.5,192.5 C 270.345,193.671 271.011,195.005 271.5,196.5C 271.53,197.497 271.03,198.164 270,198.5C 268.7,197.293 267.2,196.626 265.5,196.5C 266.568,195.566 267.901,195.232 269.5,195.5C 269.5,194.5 269.5,193.5 269.5,192.5 Z"/></g>
<g><path style="opacity:1" fill="#a5a8ae" d="M 265.5,196.5 C 267.2,196.626 268.7,197.293 270,198.5C 271.03,198.164 271.53,197.497 271.5,196.5C 272.404,197.209 272.737,198.209 272.5,199.5C 270.379,199.325 268.379,199.659 266.5,200.5C 266.167,199.167 265.833,197.833 265.5,196.5 Z"/></g>
<g><path style="opacity:1" fill="#646a75" d="M 265.5,196.5 C 265.833,197.833 266.167,199.167 266.5,200.5C 266.5,200.833 266.5,201.167 266.5,201.5C 265.391,201.557 264.391,201.89 263.5,202.5C 263.259,200.102 263.926,198.102 265.5,196.5 Z"/></g>
<g><path style="opacity:1" fill="#90949d" d="M 302.5,195.5 C 302.5,196.167 302.833,196.5 303.5,196.5C 302.791,197.404 301.791,197.737 300.5,197.5C 300.784,199.415 300.451,201.081 299.5,202.5C 299.5,200.833 299.5,199.167 299.5,197.5C 298.209,197.737 297.209,197.404 296.5,196.5C 298.621,196.675 300.621,196.341 302.5,195.5 Z"/></g>
<g><path style="opacity:1" fill="#c3c8cd" d="M 266.5,201.5 C 264.054,204.231 261.054,206.231 257.5,207.5C 257.414,206.504 257.748,205.671 258.5,205C 260.249,204.215 261.916,203.382 263.5,202.5C 264.391,201.89 265.391,201.557 266.5,201.5 Z"/></g>
<g><path style="opacity:1" fill="#a2a8ae" d="M 307.5,203.5 C 305.315,203.704 303.315,204.37 301.5,205.5C 302.92,202.651 304.92,201.984 307.5,203.5 Z"/></g>
<g><path style="opacity:1" fill="#757c85" d="M 378.5,205.5 C 376.821,205.285 375.821,205.952 375.5,207.5C 374.609,206.739 373.942,205.739 373.5,204.5C 375.623,201.777 377.29,202.111 378.5,205.5 Z"/></g>
<g><path style="opacity:1" fill="#363b40" d="M 385.5,196.5 C 386.586,196.62 387.253,197.287 387.5,198.5C 387.522,202.817 385.856,206.15 382.5,208.5C 382.167,208.167 381.833,207.833 381.5,207.5C 384.797,204.568 386.13,200.901 385.5,196.5 Z"/></g>
<g><path style="opacity:1" fill="#d2d5d8" d="M 319.5,208.5 C 321.042,209.163 322.709,209.83 324.5,210.5C 323.72,212.455 322.22,213.455 320,213.5C 316.825,213.054 313.658,212.554 310.5,212C 309.902,209.952 308.569,208.785 306.5,208.5C 302.755,209.352 299.088,210.352 295.5,211.5C 295.5,210.5 295.5,209.5 295.5,208.5C 298.358,208.972 300.358,207.972 301.5,205.5C 303.315,204.37 305.315,203.704 307.5,203.5C 308.254,205.446 309.588,206.279 311.5,206C 309.025,204.257 309.025,203.257 311.5,203C 313.004,204.491 313.837,206.324 314,208.5C 316.084,206.137 317.917,206.137 319.5,208.5 Z"/></g>
<g><path style="opacity:1" fill="#141f2f" d="M 428.5,149.5 C 431.5,149.5 434.5,149.5 437.5,149.5C 437.811,150.478 438.478,151.145 439.5,151.5C 440.667,208.83 440.833,266.164 440,323.5C 438.629,325.041 437.129,326.375 435.5,327.5C 424.146,327.66 412.813,327.326 401.5,326.5C 399.753,324.325 398.92,321.992 399,319.5C 398.667,320.167 398.333,320.833 398,321.5C 396.488,319.043 395.154,319.043 394,321.5C 393.683,319.699 393.016,319.366 392,320.5C 390.169,318.145 388.003,316.812 385.5,316.5C 386.376,315.749 387.376,315.249 388.5,315C 383.845,314.501 379.179,314.334 374.5,314.5C 381.337,313.631 388.337,312.964 395.5,312.5C 406,312.061 416.333,311.395 426.5,310.5C 427.493,302.35 427.826,294.017 427.5,285.5C 428.167,279.5 428.833,273.5 429.5,267.5C 434.432,270.305 437.098,268.638 437.5,262.5C 437.48,261.274 437.147,260.274 436.5,259.5C 436.441,257.278 435.275,256.278 433,256.5C 431.301,256.387 430.134,257.053 429.5,258.5C 428.502,222.337 428.168,186.004 428.5,149.5 Z"/></g>
<g><path style="opacity:1" fill="#131b2d" d="M 368.5,222.5 C 372.411,225.049 372.411,227.382 368.5,229.5C 366.912,228.99 365.745,227.99 365,226.5C 364.667,227.167 364.333,227.833 364,228.5C 363.768,227.263 363.268,226.263 362.5,225.5C 361.54,221.51 359.207,220.177 355.5,221.5C 352.489,224.532 350.823,228.199 350.5,232.5C 348.225,229.113 346.392,225.447 345,221.5C 344.292,220.619 343.458,219.953 342.5,219.5C 339.573,218.166 336.573,216.833 333.5,215.5C 332.406,216.868 332.74,218.035 334.5,219C 335.793,219.49 337.127,219.657 338.5,219.5C 338.5,220.5 338.5,221.5 338.5,222.5C 337.694,223.728 336.694,224.728 335.5,225.5C 333.906,225.92 332.406,226.586 331,227.5C 328.304,224.462 325.97,221.129 324,217.5C 324.345,221.539 325.845,225.206 328.5,228.5C 330.595,228.761 332.595,229.094 334.5,229.5C 332.588,232.919 330.088,235.919 327,238.5C 326.785,241.856 326.785,245.189 327,248.5C 326,249.167 325,249.833 324,250.5C 323.807,258.187 319.974,262.52 312.5,263.5C 309.628,255.73 307.628,247.73 306.5,239.5C 306.739,237.533 306.406,235.699 305.5,234C 301.83,233.721 298.163,233.888 294.5,234.5C 290.726,230.228 289.559,225.228 291,219.5C 292.777,216.941 294.277,214.274 295.5,211.5C 299.088,210.352 302.755,209.352 306.5,208.5C 308.569,208.785 309.902,209.952 310.5,212C 313.658,212.554 316.825,213.054 320,213.5C 322.22,213.455 323.72,212.455 324.5,210.5C 322.709,209.83 321.042,209.163 319.5,208.5C 320.826,206.805 320.493,205.472 318.5,204.5C 319.873,204.657 321.207,204.49 322.5,204C 325.354,200.658 326.021,201.158 324.5,205.5C 325.397,205.669 326.397,206.002 327.5,206.5C 327.772,209.544 329.105,211.877 331.5,213.5C 332.85,212.05 334.516,211.383 336.5,211.5C 336.215,209.712 336.548,208.045 337.5,206.5C 338.609,205.41 339.609,205.41 340.5,206.5C 339.675,207.386 338.675,207.719 337.5,207.5C 337.372,209.655 337.872,211.655 339,213.5C 340,214.833 341,214.833 342,213.5C 342.29,215.044 342.956,216.377 344,217.5C 344.333,216.833 344.667,216.167 345,215.5C 345.196,217.286 346.029,218.619 347.5,219.5C 348.314,217.234 348.814,214.9 349,212.5C 350.473,212.868 351.973,212.368 353.5,211C 352.366,209.984 352.699,209.317 354.5,209C 357.509,209.16 359.675,207.993 361,205.5C 361.804,208.514 362.971,211.347 364.5,214C 359.672,216.061 359.672,217.394 364.5,218C 363.185,219.395 363.519,220.395 365.5,221C 364.027,221.71 363.36,222.876 363.5,224.5C 365.39,224.297 366.89,224.963 368,226.5C 368.49,225.207 368.657,223.873 368.5,222.5 Z"/></g>
<g><path style="opacity:1" fill="#ced3da" d="M 419.5,140.5 C 420.499,193.331 420.832,246.331 420.5,299.5C 415.5,299.5 410.5,299.5 405.5,299.5C 409.97,298.514 414.637,298.181 419.5,298.5C 419.5,246.167 419.5,193.833 419.5,141.5C 419.5,141.167 419.5,140.833 419.5,140.5 Z"/></g>
<g><path style="opacity:1" fill="#e1e3e6" d="M 257.5,207.5 C 257.449,210.541 256.449,213.208 254.5,215.5C 255.844,217.529 257.177,219.529 258.5,221.5C 257.305,221.322 256.138,220.989 255,220.5C 253.97,220.836 253.47,221.503 253.5,222.5C 252.292,221.766 250.959,221.433 249.5,221.5C 249.433,222.959 249.766,224.292 250.5,225.5C 248.338,225.103 247.005,223.769 246.5,221.5C 245.158,223.005 243.492,223.672 241.5,223.5C 240.61,221.218 240.444,218.885 241,216.5C 242.11,214.963 243.61,214.297 245.5,214.5C 246.873,214.343 248.207,214.51 249.5,215C 252.511,219.439 254.011,218.606 254,212.5C 255.626,211.045 256.792,209.378 257.5,207.5 Z"/></g>
<g><path style="opacity:1" fill="#7a7d84" d="M 375.5,208.5 C 375.833,208.5 376.167,208.5 376.5,208.5C 376.5,211.833 376.5,215.167 376.5,218.5C 375.5,218.5 374.5,218.5 373.5,218.5C 375.299,215.495 375.966,212.162 375.5,208.5 Z"/></g>
<g><path style="opacity:1" fill="#9a9ea9" d="M 342.5,219.5 C 341.5,219.5 340.5,219.5 339.5,219.5C 339.737,220.791 339.404,221.791 338.5,222.5C 338.5,221.5 338.5,220.5 338.5,219.5C 337.127,219.657 335.793,219.49 334.5,219C 332.74,218.035 332.406,216.868 333.5,215.5C 336.573,216.833 339.573,218.166 342.5,219.5 Z"/></g>
<g><path style="opacity:1" fill="#85878b" d="M 258.5,221.5 C 259.091,222.151 259.757,222.818 260.5,223.5C 258.01,224.632 255.676,224.299 253.5,222.5C 253.47,221.503 253.97,220.836 255,220.5C 256.138,220.989 257.305,221.322 258.5,221.5 Z"/></g>
<g><path style="opacity:1" fill="#353c46" d="M 250.5,225.5 C 250.12,227.698 250.787,229.365 252.5,230.5C 251.791,231.404 250.791,231.737 249.5,231.5C 248.067,230.167 246.733,228.667 245.5,227C 242.896,226.61 240.562,225.776 238.5,224.5C 239.791,224.737 240.791,224.404 241.5,223.5C 243.492,223.672 245.158,223.005 246.5,221.5C 247.005,223.769 248.338,225.103 250.5,225.5 Z"/></g>
<g><path style="opacity:1" fill="#8a8b8c" d="M 377.5,222.5 C 377.402,224.553 378.069,226.22 379.5,227.5C 380.052,229.331 380.052,230.997 379.5,232.5C 378.776,229.385 377.276,226.718 375,224.5C 374.406,221.781 375.24,221.114 377.5,222.5 Z"/></g>
<g><path style="opacity:1" fill="#dee0e2" d="M 376.5,208.5 C 377.486,212.97 377.819,217.637 377.5,222.5C 375.24,221.114 374.406,221.781 375,224.5C 377.276,226.718 378.776,229.385 379.5,232.5C 380.052,230.997 380.052,229.331 379.5,227.5C 381.011,228.958 382.011,230.791 382.5,233C 384.708,233.191 386.708,233.691 388.5,234.5C 384.473,234.281 383.806,235.448 386.5,238C 389.089,239.314 391.756,239.981 394.5,240C 393.177,239.184 392.511,238.017 392.5,236.5C 393.833,236.5 395.167,236.5 396.5,236.5C 396.579,237.93 396.246,239.264 395.5,240.5C 397.836,241.594 397.836,242.927 395.5,244.5C 393.633,241.771 392.633,242.104 392.5,245.5C 391.288,244.77 390.288,243.77 389.5,242.5C 388.5,243.167 387.5,243.833 386.5,244.5C 385.717,242.712 384.384,241.712 382.5,241.5C 383.398,240.842 384.398,240.176 385.5,239.5C 382.442,239.267 380.609,237.267 380,233.5C 379.392,235.066 378.558,236.4 377.5,237.5C 375.576,235.36 374.909,233.026 375.5,230.5C 373.022,231.722 372.022,233.722 372.5,236.5C 374.322,236.831 375.989,237.498 377.5,238.5C 376.306,239.777 374.64,240.444 372.5,240.5C 370.631,240.493 368.964,240.16 367.5,239.5C 369.604,239.799 371.604,239.466 373.5,238.5C 372.311,237.571 370.978,237.238 369.5,237.5C 368.093,235.468 366.76,233.301 365.5,231C 363.846,230.804 362.846,231.637 362.5,233.5C 361.475,232.626 360.808,231.459 360.5,230C 361.707,228.7 362.374,227.2 362.5,225.5C 363.268,226.263 363.768,227.263 364,228.5C 364.333,227.833 364.667,227.167 365,226.5C 365.745,227.99 366.912,228.99 368.5,229.5C 372.411,227.382 372.411,225.049 368.5,222.5C 368.967,219.703 370.633,218.369 373.5,218.5C 374.5,218.5 375.5,218.5 376.5,218.5C 376.5,215.167 376.5,211.833 376.5,208.5 Z"/></g>
<g><path style="opacity:1" fill="#9ca1a9" d="M 335.5,225.5 C 335.768,227.099 335.434,228.432 334.5,229.5C 332.595,229.094 330.595,228.761 328.5,228.5C 325.845,225.206 324.345,221.539 324,217.5C 325.97,221.129 328.304,224.462 331,227.5C 332.406,226.586 333.906,225.92 335.5,225.5 Z"/></g>
<g><path style="opacity:1" fill="#80848d" d="M 263.5,230.5 C 260.535,229.266 257.535,229.266 254.5,230.5C 254.611,229.883 254.944,229.383 255.5,229C 256.833,228.833 258.167,228.667 259.5,228.5C 261.333,228.585 262.666,229.252 263.5,230.5 Z"/></g>
<g><path style="opacity:1" fill="#a3a7ae" d="M 252.5,230.5 C 253.167,230.5 253.833,230.5 254.5,230.5C 254.768,232.099 254.434,233.432 253.5,234.5C 252.552,233.022 251.219,232.022 249.5,231.5C 250.791,231.737 251.791,231.404 252.5,230.5 Z"/></g>
<g><path style="opacity:1" fill="#212830" d="M 369.5,237.5 C 368.791,238.404 367.791,238.737 366.5,238.5C 365.167,236.833 363.833,235.167 362.5,233.5C 362.846,231.637 363.846,230.804 365.5,231C 366.76,233.301 368.093,235.468 369.5,237.5 Z"/></g>
<g><path style="opacity:1" fill="#b0b3b9" d="M 306.5,239.5 C 305.566,238.432 305.232,237.099 305.5,235.5C 301.629,235.815 297.962,235.482 294.5,234.5C 298.163,233.888 301.83,233.721 305.5,234C 306.406,235.699 306.739,237.533 306.5,239.5 Z"/></g>
<g><path style="opacity:1" fill="#3e4146" d="M 377.5,237.5 C 377.5,237.833 377.5,238.167 377.5,238.5C 375.989,237.498 374.322,236.831 372.5,236.5C 372.022,233.722 373.022,231.722 375.5,230.5C 374.909,233.026 375.576,235.36 377.5,237.5 Z"/></g>
<g><path style="opacity:1" fill="#30343f" d="M 388.5,234.5 C 389.833,235.167 391.167,235.833 392.5,236.5C 392.511,238.017 393.177,239.184 394.5,240C 391.756,239.981 389.089,239.314 386.5,238C 383.806,235.448 384.473,234.281 388.5,234.5 Z"/></g>
<g><path style="opacity:1" fill="#131c2d" d="M 263.5,230.5 C 267.349,231.675 270.349,234.009 272.5,237.5C 274.121,239.942 276.454,241.275 279.5,241.5C 281.377,242.659 281.877,244.326 281,246.5C 275.893,253.108 271.393,260.108 267.5,267.5C 265.973,267.427 264.973,268.094 264.5,269.5C 263.542,269.953 262.708,270.619 262,271.5C 261.477,275.142 260.31,278.476 258.5,281.5C 258.5,281.833 258.5,282.167 258.5,282.5C 257.883,282.389 257.383,282.056 257,281.5C 256.833,279.167 256.667,276.833 256.5,274.5C 257.859,266.878 258.359,259.212 258,251.5C 255.763,249.353 253.763,247.02 252,244.5C 251.153,240.928 251.653,237.594 253.5,234.5C 254.434,233.432 254.768,232.099 254.5,230.5C 257.535,229.266 260.535,229.266 263.5,230.5 Z"/></g>
<g><path style="opacity:1" fill="#9ea4ab" d="M 272.5,237.5 C 275.1,238.468 277.434,239.801 279.5,241.5C 276.454,241.275 274.121,239.942 272.5,237.5 Z"/></g>
<g><path style="opacity:1" fill="#848689" d="M 369.5,237.5 C 370.978,237.238 372.311,237.571 373.5,238.5C 371.604,239.466 369.604,239.799 367.5,239.5C 366.833,239.5 366.5,239.167 366.5,238.5C 367.791,238.737 368.791,238.404 369.5,237.5 Z"/></g>
<g><path style="opacity:1" fill="#898c92" d="M 381.5,242.5 C 380.486,243.674 379.153,244.34 377.5,244.5C 378.287,242.896 379.62,242.229 381.5,242.5 Z"/></g>
<g><path style="opacity:1" fill="#141e2e" d="M 382.5,241.5 C 384.384,241.712 385.717,242.712 386.5,244.5C 387.5,243.833 388.5,243.167 389.5,242.5C 390.288,243.77 391.288,244.77 392.5,245.5C 395.61,251.615 394.61,256.949 389.5,261.5C 388.167,261.5 386.833,261.5 385.5,261.5C 385.703,259.61 385.037,258.11 383.5,257C 379.152,256.585 374.819,256.751 370.5,257.5C 370.5,255.167 370.5,252.833 370.5,250.5C 372.833,248.5 375.167,246.5 377.5,244.5C 379.153,244.34 380.486,243.674 381.5,242.5C 382.167,242.5 382.5,242.167 382.5,241.5 Z"/></g>
<g><path style="opacity:1" fill="#bbc0c8" d="M 172.5,149.5 C 175.962,148.518 179.629,148.185 183.5,148.5C 183.5,194.167 183.5,239.833 183.5,285.5C 183.167,285.5 182.833,285.5 182.5,285.5C 182.5,240.167 182.5,194.833 182.5,149.5C 179.167,149.5 175.833,149.5 172.5,149.5 Z"/></g>
<g><path style="opacity:1" fill="#c1c7ce" d="M 203.5,187.5 C 203.833,187.5 204.167,187.5 204.5,187.5C 204.5,220.167 204.5,252.833 204.5,285.5C 207.373,285.802 210.039,286.469 212.5,287.5C 209.5,287.5 206.5,287.5 203.5,287.5C 203.5,272.167 203.5,256.833 203.5,241.5C 203.5,223.5 203.5,205.5 203.5,187.5 Z"/></g>
<g><path style="opacity:1" fill="#1c2028" d="M 330.5,246.5 C 331.649,246.791 332.316,247.624 332.5,249C 331.923,251.137 331.59,253.304 331.5,255.5C 330.5,255.5 329.5,255.5 328.5,255.5C 328.207,252.246 328.874,249.246 330.5,246.5 Z"/></g>
<g><path style="opacity:1" fill="#b9bdc1" d="M 370.5,250.5 C 370.5,252.833 370.5,255.167 370.5,257.5C 374.819,256.751 379.152,256.585 383.5,257C 385.037,258.11 385.703,259.61 385.5,261.5C 386.833,261.5 388.167,261.5 389.5,261.5C 389.5,262.833 389.5,264.167 389.5,265.5C 388.5,265.5 387.5,265.5 386.5,265.5C 385.862,263.201 384.862,261.034 383.5,259C 378.845,258.501 374.179,258.334 369.5,258.5C 369.194,255.615 369.527,252.948 370.5,250.5 Z"/></g>
<g><path style="opacity:1" fill="#131e2e" d="M 419.5,141.5 C 419.5,193.833 419.5,246.167 419.5,298.5C 414.637,298.181 409.97,298.514 405.5,299.5C 401.466,299.505 397.466,299.838 393.5,300.5C 381.078,301.681 368.745,303.515 356.5,306C 355.944,306.383 355.611,306.883 355.5,307.5C 352.833,307.833 350.167,308.167 347.5,308.5C 343.233,309.256 339.233,310.589 335.5,312.5C 334.167,312.5 332.833,312.5 331.5,312.5C 328.813,312.664 326.146,312.497 323.5,312C 324.305,310.887 324.972,309.721 325.5,308.5C 329.715,307.253 334.048,306.42 338.5,306C 342.383,303.23 346.383,300.73 350.5,298.5C 354.395,297.538 358.061,296.204 361.5,294.5C 364.855,294.31 367.855,293.31 370.5,291.5C 370.833,291.5 371.167,291.5 371.5,291.5C 373.898,291.741 375.898,291.074 377.5,289.5C 380.167,289.167 382.833,288.833 385.5,288.5C 389.04,288.247 392.373,287.581 395.5,286.5C 398.287,285.523 401.287,285.19 404.5,285.5C 405.497,264.673 405.831,243.673 405.5,222.5C 405.5,195.5 405.5,168.5 405.5,141.5C 410.167,141.5 414.833,141.5 419.5,141.5 Z"/></g>
<g><path style="opacity:1" fill="#c7cdd3" d="M 436.5,259.5 C 437.147,260.274 437.48,261.274 437.5,262.5C 437.098,268.638 434.432,270.305 429.5,267.5C 428.266,264.465 428.266,261.465 429.5,258.5C 430.134,257.053 431.301,256.387 433,256.5C 435.275,256.278 436.441,257.278 436.5,259.5 Z"/></g>
<g><path style="opacity:1" fill="#f5f8f9" d="M 436.5,259.5 C 437.495,264.542 435.495,266.875 430.5,266.5C 430.5,263.833 430.5,261.167 430.5,258.5C 432.621,258.325 434.621,258.659 436.5,259.5 Z"/></g>
<g><path style="opacity:1" fill="#111d2d" d="M 202.5,141.5 C 203.496,156.658 203.83,171.991 203.5,187.5C 203.5,205.5 203.5,223.5 203.5,241.5C 202.504,257.658 202.17,273.991 202.5,290.5C 208.26,289.043 213.76,289.71 219,292.5C 219.739,291.426 220.739,290.759 222,290.5C 226.078,291.749 230.245,292.416 234.5,292.5C 240.833,293.833 247.167,295.167 253.5,296.5C 255.102,298.074 257.102,298.741 259.5,298.5C 260.93,299.537 262.597,300.204 264.5,300.5C 265.301,302.042 265.634,303.708 265.5,305.5C 262.282,305.651 261.949,306.484 264.5,308C 264.272,308.399 263.938,308.565 263.5,308.5C 259.821,308.276 256.154,307.942 252.5,307.5C 250.485,306.076 248.152,305.41 245.5,305.5C 242.615,305.806 239.948,305.473 237.5,304.5C 233.081,303.028 228.414,302.362 223.5,302.5C 223.167,302.5 222.833,302.5 222.5,302.5C 218.764,301.011 214.764,300.344 210.5,300.5C 205.666,299.015 200.666,297.348 195.5,295.5C 193.533,296.682 192.2,296.015 191.5,293.5C 190.5,243.171 190.167,192.838 190.5,142.5C 194.702,142.817 198.702,142.483 202.5,141.5 Z"/></g>
<g><path style="opacity:1" fill="#80848b" d="M 267.5,267.5 C 267.027,268.906 266.027,269.573 264.5,269.5C 264.973,268.094 265.973,267.427 267.5,267.5 Z"/></g>
<g><path style="opacity:1" fill="#9ea6ae" d="M 197.5,141.5 C 194.833,141.5 192.167,141.5 189.5,141.5C 189.5,194.167 189.5,246.833 189.5,299.5C 188.501,246.669 188.168,193.669 188.5,140.5C 191.713,140.19 194.713,140.523 197.5,141.5 Z"/></g>
<g><path style="opacity:1" fill="#70767f" d="M 404.5,222.5 C 404.833,222.5 405.167,222.5 405.5,222.5C 405.831,243.673 405.497,264.673 404.5,285.5C 404.666,277.16 404.5,268.827 404,260.5C 402.164,263.379 399.664,264.879 396.5,265C 398.81,262.17 401.476,260.003 404.5,258.5C 404.5,246.5 404.5,234.5 404.5,222.5 Z"/></g>
<g><path style="opacity:1" fill="#94979b" d="M 258.5,281.5 C 259.901,281.971 261.234,282.638 262.5,283.5C 261.833,283.833 261.167,284.167 260.5,284.5C 259.287,284.253 258.62,283.586 258.5,282.5C 258.5,282.167 258.5,281.833 258.5,281.5 Z"/></g>
<g><path style="opacity:1" fill="#232d3a" d="M 197.5,141.5 C 199.167,141.5 200.833,141.5 202.5,141.5C 198.702,142.483 194.702,142.817 190.5,142.5C 190.167,192.838 190.5,243.171 191.5,293.5C 192.2,296.015 193.533,296.682 195.5,295.5C 200.666,297.348 205.666,299.015 210.5,300.5C 207.5,300.5 204.5,300.5 201.5,300.5C 197.298,300.817 193.298,300.483 189.5,299.5C 189.5,246.833 189.5,194.167 189.5,141.5C 192.167,141.5 194.833,141.5 197.5,141.5 Z"/></g>
<g><path style="opacity:1" fill="#6b717b" d="M 395.5,286.5 C 392.373,287.581 389.04,288.247 385.5,288.5C 385.918,287.778 386.584,287.278 387.5,287C 390.146,286.503 392.813,286.336 395.5,286.5 Z"/></g>
<g><path style="opacity:1" fill="#252f3b" d="M 203.5,241.5 C 203.5,256.833 203.5,272.167 203.5,287.5C 206.5,287.5 209.5,287.5 212.5,287.5C 213.167,287.5 213.833,287.5 214.5,287.5C 218.883,289.23 223.55,290.23 228.5,290.5C 230.621,290.325 232.621,290.659 234.5,291.5C 234.5,291.833 234.5,292.167 234.5,292.5C 230.245,292.416 226.078,291.749 222,290.5C 220.739,290.759 219.739,291.426 219,292.5C 213.76,289.71 208.26,289.043 202.5,290.5C 202.17,273.991 202.504,257.658 203.5,241.5 Z"/></g>
<g><path style="opacity:1" fill="#7b8187" d="M 214.5,287.5 C 219.45,287.77 224.117,288.77 228.5,290.5C 223.55,290.23 218.883,289.23 214.5,287.5 Z"/></g>
<g><path style="opacity:1" fill="#747b81" d="M 377.5,289.5 C 375.898,291.074 373.898,291.741 371.5,291.5C 373.102,289.926 375.102,289.259 377.5,289.5 Z"/></g>
<g><path style="opacity:1" fill="#c8cdd2" d="M 234.5,292.5 C 234.5,292.167 234.5,291.833 234.5,291.5C 239.58,291.25 244.58,291.75 249.5,293C 251.027,294.032 252.36,295.199 253.5,296.5C 247.167,295.167 240.833,293.833 234.5,292.5 Z"/></g>
<g><path style="opacity:1" fill="#737980" d="M 370.5,291.5 C 367.855,293.31 364.855,294.31 361.5,294.5C 364.084,292.528 367.084,291.528 370.5,291.5 Z"/></g>
<g><path style="opacity:1" fill="#6c747c" d="M 361.5,294.5 C 358.061,296.204 354.395,297.538 350.5,298.5C 353.626,296.01 357.292,294.677 361.5,294.5 Z"/></g>
<g><path style="opacity:1" fill="#acb1b8" d="M 253.5,296.5 C 255.898,296.259 257.898,296.926 259.5,298.5C 257.102,298.741 255.102,298.074 253.5,296.5 Z"/></g>
<g><path style="opacity:1" fill="#b7bcc1" d="M 405.5,299.5 C 401.79,301.136 397.79,301.802 393.5,301.5C 393.5,301.167 393.5,300.833 393.5,300.5C 397.466,299.838 401.466,299.505 405.5,299.5 Z"/></g>
<g><path style="opacity:1" fill="#9fa5ab" d="M 182.5,285.5 C 182.833,285.5 183.167,285.5 183.5,285.5C 183.5,293.833 183.5,302.167 183.5,310.5C 192.384,310.261 201.051,310.928 209.5,312.5C 200.487,312.44 191.487,312.107 182.5,311.5C 182.5,302.833 182.5,294.167 182.5,285.5 Z"/></g>
<g><path style="opacity:1" fill="#6c737b" d="M 201.5,300.5 C 204.5,300.5 207.5,300.5 210.5,300.5C 214.764,300.344 218.764,301.011 222.5,302.5C 218.466,302.495 214.466,302.162 210.5,301.5C 207.287,301.81 204.287,301.477 201.5,300.5 Z"/></g>
<g><path style="opacity:1" fill="#60666e" d="M 223.5,302.5 C 228.414,302.362 233.081,303.028 237.5,304.5C 232.586,304.638 227.919,303.972 223.5,302.5 Z"/></g>
<g><path style="opacity:1" fill="#848b92" d="M 393.5,300.5 C 393.5,300.833 393.5,301.167 393.5,301.5C 383.562,302.345 373.895,304.011 364.5,306.5C 361.482,306.704 358.482,307.037 355.5,307.5C 355.611,306.883 355.944,306.383 356.5,306C 368.745,303.515 381.078,301.681 393.5,300.5 Z"/></g>
<g><path style="opacity:1" fill="#878c92" d="M 273.5,303.5 C 275.027,303.427 276.027,304.094 276.5,305.5C 274.973,305.573 273.973,304.906 273.5,303.5 Z"/></g>
<g><path style="opacity:1" fill="#2e3741" d="M 350.5,298.5 C 346.383,300.73 342.383,303.23 338.5,306C 334.048,306.42 329.715,307.253 325.5,308.5C 331.325,305.563 337.325,302.73 343.5,300C 345.74,299.023 348.073,298.523 350.5,298.5 Z"/></g>
<g><path style="opacity:1" fill="#787e86" d="M 245.5,305.5 C 248.152,305.41 250.485,306.076 252.5,307.5C 251.833,307.5 251.167,307.5 250.5,307.5C 248.597,307.204 246.93,306.537 245.5,305.5 Z"/></g>
<g><path style="opacity:1" fill="#8c9296" d="M 278.5,305.5 C 280.027,305.427 281.027,306.094 281.5,307.5C 279.973,307.573 278.973,306.906 278.5,305.5 Z"/></g>
<g><path style="opacity:1" fill="#1d2631" d="M 264.5,300.5 C 267.451,301.694 270.451,302.694 273.5,303.5C 273.973,304.906 274.973,305.573 276.5,305.5C 277.167,305.5 277.833,305.5 278.5,305.5C 278.973,306.906 279.973,307.573 281.5,307.5C 289.379,310.72 297.046,314.387 304.5,318.5C 311.414,315.019 318.414,311.685 325.5,308.5C 324.972,309.721 324.305,310.887 323.5,312C 326.146,312.497 328.813,312.664 331.5,312.5C 331.5,313.167 331.167,313.5 330.5,313.5C 322.832,315.057 315.499,317.391 308.5,320.5C 305.656,321.551 302.656,321.551 299.5,320.5C 295.936,318.081 291.936,316.414 287.5,315.5C 284.5,314.833 281.5,314.167 278.5,313.5C 276.898,311.926 274.898,311.259 272.5,311.5C 269.5,310.833 266.5,310.167 263.5,309.5C 263.5,309.167 263.5,308.833 263.5,308.5C 263.938,308.565 264.272,308.399 264.5,308C 261.949,306.484 262.282,305.651 265.5,305.5C 265.634,303.708 265.301,302.042 264.5,300.5 Z"/></g>
<g><path style="opacity:1" fill="#7d858a" d="M 426.5,310.5 C 416.333,311.395 406,312.061 395.5,312.5C 395.5,312.167 395.5,311.833 395.5,311.5C 405.794,310.573 416.128,310.24 426.5,310.5 Z"/></g>
<g><path style="opacity:1" fill="#f1f4f5" d="M 210.5,301.5 C 214.466,302.162 218.466,302.495 222.5,302.5C 222.833,302.5 223.167,302.5 223.5,302.5C 227.919,303.972 232.586,304.638 237.5,304.5C 239.948,305.473 242.615,305.806 245.5,305.5C 246.93,306.537 248.597,307.204 250.5,307.5C 250.918,308.222 251.584,308.722 252.5,309C 256.152,309.499 259.818,309.665 263.5,309.5C 266.5,310.167 269.5,310.833 272.5,311.5C 274.102,313.074 276.102,313.741 278.5,313.5C 281.5,314.167 284.5,314.833 287.5,315.5C 291.064,317.919 295.064,319.586 299.5,320.5C 302.656,321.551 305.656,321.551 308.5,320.5C 316.168,318.943 323.501,316.609 330.5,313.5C 331.167,313.5 331.5,313.167 331.5,312.5C 332.833,312.5 334.167,312.5 335.5,312.5C 339.915,312.139 343.915,310.806 347.5,308.5C 350.167,308.167 352.833,307.833 355.5,307.5C 358.482,307.037 361.482,306.704 364.5,306.5C 363.439,309.033 364.272,311.033 367,312.5C 369.081,311.667 371.248,311.667 373.5,312.5C 371.167,313.167 368.833,313.833 366.5,314.5C 363.236,315.324 359.902,315.658 356.5,315.5C 345.122,316.578 333.789,318.078 322.5,320C 321.748,320.671 321.414,321.504 321.5,322.5C 319.807,328.193 316.14,331.86 310.5,333.5C 305.77,333.717 301.103,333.383 296.5,332.5C 291.397,330.057 288.064,326.057 286.5,320.5C 282.005,319.578 277.338,318.911 272.5,318.5C 254.716,316.492 237.05,314.492 219.5,312.5C 221.167,312.5 222.833,312.5 224.5,312.5C 224.259,309.001 225.092,308.668 227,311.5C 228.399,310.773 229.899,310.273 231.5,310C 232.742,306.643 233.576,306.81 234,310.5C 235.65,309.109 236.15,307.609 235.5,306C 226.844,304.929 218.51,303.429 210.5,301.5 Z"/></g>
<g><path style="opacity:1" fill="#aab0b6" d="M 347.5,308.5 C 343.915,310.806 339.915,312.139 335.5,312.5C 339.233,310.589 343.233,309.256 347.5,308.5 Z"/></g>
<g><path style="opacity:1" fill="#c0c4c9" d="M 250.5,307.5 C 251.167,307.5 251.833,307.5 252.5,307.5C 256.154,307.942 259.821,308.276 263.5,308.5C 263.5,308.833 263.5,309.167 263.5,309.5C 259.818,309.665 256.152,309.499 252.5,309C 251.584,308.722 250.918,308.222 250.5,307.5 Z"/></g>
<g><path style="opacity:1" fill="#7a7f86" d="M 272.5,311.5 C 274.898,311.259 276.898,311.926 278.5,313.5C 276.102,313.741 274.102,313.074 272.5,311.5 Z"/></g>
<g><path style="opacity:1" fill="#92999e" d="M 395.5,311.5 C 395.5,311.833 395.5,312.167 395.5,312.5C 388.337,312.964 381.337,313.631 374.5,314.5C 371.833,314.5 369.167,314.5 366.5,314.5C 368.833,313.833 371.167,313.167 373.5,312.5C 380.849,312.451 388.183,312.118 395.5,311.5 Z"/></g>
<g><path style="opacity:1" fill="#8e949a" d="M 330.5,313.5 C 323.501,316.609 316.168,318.943 308.5,320.5C 315.499,317.391 322.832,315.057 330.5,313.5 Z"/></g>
<g><path style="opacity:1" fill="#172230" d="M 172.5,149.5 C 175.833,149.5 179.167,149.5 182.5,149.5C 182.5,194.833 182.5,240.167 182.5,285.5C 182.5,294.167 182.5,302.833 182.5,311.5C 191.487,312.107 200.487,312.44 209.5,312.5C 212.833,312.5 216.167,312.5 219.5,312.5C 237.05,314.492 254.716,316.492 272.5,318.5C 273.263,319.268 274.263,319.768 275.5,320C 279.152,320.499 282.818,320.665 286.5,320.5C 288.064,326.057 291.397,330.057 296.5,332.5C 296.611,333.117 296.944,333.617 297.5,334C 302.02,334.814 306.354,334.647 310.5,333.5C 316.14,331.86 319.807,328.193 321.5,322.5C 333.186,319.833 344.853,317.5 356.5,315.5C 359.902,315.658 363.236,315.324 366.5,314.5C 369.167,314.5 371.833,314.5 374.5,314.5C 379.179,314.334 383.845,314.501 388.5,315C 387.376,315.249 386.376,315.749 385.5,316.5C 388.003,316.812 390.169,318.145 392,320.5C 393.016,319.366 393.683,319.699 394,321.5C 395.154,319.043 396.488,319.043 398,321.5C 398.333,320.833 398.667,320.167 399,319.5C 398.92,321.992 399.753,324.325 401.5,326.5C 412.813,327.326 424.146,327.66 435.5,327.5C 399.669,328.333 363.669,328.833 327.5,329C 325.332,331.998 322.999,334.831 320.5,337.5C 318.181,337.992 316.181,338.992 314.5,340.5C 308.982,342.377 303.315,342.877 297.5,342C 292.129,339.466 287.463,335.966 283.5,331.5C 283.586,330.504 283.252,329.671 282.5,329C 245.835,328.5 209.168,328.333 172.5,328.5C 171.542,327.038 170.376,325.705 169,324.5C 168.168,266.999 168.335,209.665 169.5,152.5C 169.333,208.834 169.5,265.168 170,321.5C 173.252,326.575 177.586,327.575 183,324.5C 184.892,324.777 186.225,325.777 187,327.5C 195.834,327.09 204.501,326.09 213,324.5C 213.333,324.833 213.667,325.167 214,325.5C 215.314,324.687 216.481,323.687 217.5,322.5C 218.652,324.825 220.485,326.158 223,326.5C 229.244,325.744 235.744,325.744 242.5,326.5C 242.351,325.448 242.517,324.448 243,323.5C 243.899,325.368 245.399,326.368 247.5,326.5C 249.135,325.954 250.801,325.62 252.5,325.5C 252.383,323.516 253.05,321.85 254.5,320.5C 254.192,319.692 253.692,319.025 253,318.5C 250.028,320.179 247.361,320.512 245,319.5C 244.333,321.5 243,322.833 241,323.5C 236.879,322.178 232.713,321.345 228.5,321C 228,320.5 227.5,320 227,319.5C 225.644,320.38 224.144,320.714 222.5,320.5C 222.762,319.022 222.429,317.689 221.5,316.5C 220.289,317.274 220.289,318.107 221.5,319C 220.667,319.833 219.833,320.667 219,321.5C 212.941,319.128 213.108,317.628 219.5,317C 215.938,315.739 212.271,314.906 208.5,314.5C 208.688,316.103 208.188,317.437 207,318.5C 205.75,317.427 204.416,317.427 203,318.5C 202.5,318.333 202,318.167 201.5,318C 204.028,316.684 204.028,315.517 201.5,314.5C 197.775,313.971 193.942,313.971 190,314.5C 185.946,314.164 182.279,312.83 179,310.5C 176.101,311.874 175.934,313.374 178.5,315C 175.833,316.333 175.833,317.667 178.5,319C 176.359,319.884 174.693,319.384 173.5,317.5C 174,314.365 174.667,311.032 175.5,307.5C 180.718,307.546 181.552,305.879 178,302.5C 176.989,303.337 175.822,303.67 174.5,303.5C 175.244,300.05 173.91,298.384 170.5,298.5C 170.335,294.818 170.501,291.152 171,287.5C 172.693,285.396 174.86,283.896 177.5,283C 176.216,282.316 175.049,282.483 174,283.5C 172.635,282.407 172.301,281.074 173,279.5C 174,278.167 175,276.833 176,275.5C 176.741,276.641 177.575,276.641 178.5,275.5C 179.167,276.167 179.833,276.833 180.5,277.5C 181.5,235.172 181.833,192.839 181.5,150.5C 177.766,150.323 174.099,150.656 170.5,151.5C 170.833,150.5 171.5,149.833 172.5,149.5 Z"/></g>
<g><path style="opacity:1" fill="#798187" d="M 356.5,315.5 C 344.853,317.5 333.186,319.833 321.5,322.5C 321.414,321.504 321.748,320.671 322.5,320C 333.789,318.078 345.122,316.578 356.5,315.5 Z"/></g>
<g><path style="opacity:1" fill="#6c7178" d="M 272.5,318.5 C 277.338,318.911 282.005,319.578 286.5,320.5C 282.818,320.665 279.152,320.499 275.5,320C 274.263,319.768 273.263,319.268 272.5,318.5 Z"/></g>
<g><path style="opacity:1" fill="#7e868b" d="M 287.5,315.5 C 291.936,316.414 295.936,318.081 299.5,320.5C 295.064,319.586 291.064,317.919 287.5,315.5 Z"/></g>
<g><path style="opacity:1" fill="#c1c6ca" d="M 172.5,328.5 C 209.168,328.333 245.835,328.5 282.5,329C 283.252,329.671 283.586,330.504 283.5,331.5C 246.905,330.673 210.238,330.173 173.5,330C 172.944,329.617 172.611,329.117 172.5,328.5 Z"/></g>
<g><path style="opacity:1" fill="#aab0b6" d="M 296.5,332.5 C 301.103,333.383 305.77,333.717 310.5,333.5C 306.354,334.647 302.02,334.814 297.5,334C 296.944,333.617 296.611,333.117 296.5,332.5 Z"/></g>
<g><path style="opacity:1" fill="#b6bbbf" d="M 320.5,337.5 C 319.393,339.969 317.393,340.969 314.5,340.5C 316.181,338.992 318.181,337.992 320.5,337.5 Z"/></g>
<g><path style="opacity:1" fill="#979da4" d="M 132.5,382.5 C 135.287,381.523 138.287,381.19 141.5,381.5C 141.806,384.385 141.473,387.052 140.5,389.5C 140.5,387.167 140.5,384.833 140.5,382.5C 137.833,382.5 135.167,382.5 132.5,382.5 Z"/></g>
<g><path style="opacity:1" fill="#606970" d="M 117.5,382.5 C 117.5,382.167 117.5,381.833 117.5,381.5C 120.167,381.5 122.833,381.5 125.5,381.5C 125.5,396.833 125.5,412.167 125.5,427.5C 125.167,427.5 124.833,427.5 124.5,427.5C 124.5,412.5 124.5,397.5 124.5,382.5C 122.167,382.5 119.833,382.5 117.5,382.5 Z"/></g>
<g><path style="opacity:1" fill="#172232" d="M 132.5,382.5 C 135.167,382.5 137.833,382.5 140.5,382.5C 140.5,384.833 140.5,387.167 140.5,389.5C 137.833,389.5 135.167,389.5 132.5,389.5C 132.5,387.167 132.5,384.833 132.5,382.5 Z"/></g>
<g><path style="opacity:1" fill="#929aa3" d="M 117.5,381.5 C 117.5,381.833 117.5,382.167 117.5,382.5C 117.5,387.5 117.5,392.5 117.5,397.5C 116.209,397.737 115.209,397.404 114.5,396.5C 116.141,391.749 117.141,386.749 117.5,381.5 Z"/></g>
<g><path style="opacity:1" fill="#616770" d="M 168.5,395.5 C 163.673,395.221 159.007,395.887 154.5,397.5C 155.058,396.21 156.058,395.377 157.5,395C 161.358,394.19 165.024,394.357 168.5,395.5 Z"/></g>
<g><path style="opacity:1" fill="#6a7179" d="M 207.5,395.5 C 203.434,395.307 199.434,395.64 195.5,396.5C 195.611,395.883 195.944,395.383 196.5,395C 200.358,394.19 204.024,394.357 207.5,395.5 Z"/></g>
<g><path style="opacity:1" fill="#5c626a" d="M 227.5,395.5 C 223.766,395.323 220.099,395.656 216.5,396.5C 216.611,395.883 216.944,395.383 217.5,395C 221.027,394.192 224.36,394.359 227.5,395.5 Z"/></g>
<g><path style="opacity:1" fill="#606670" d="M 301.5,397.5 C 295.248,395.416 288.915,395.083 282.5,396.5C 282.611,395.883 282.944,395.383 283.5,395C 289.237,394.211 294.903,394.544 300.5,396C 301.056,396.383 301.389,396.883 301.5,397.5 Z"/></g>
<g><path style="opacity:1" fill="#8b9198" d="M 375.5,395.5 C 372.302,394.964 369.635,395.631 367.5,397.5C 366.596,396.791 366.263,395.791 366.5,394.5C 369.713,394.19 372.713,394.523 375.5,395.5 Z"/></g>
<g><path style="opacity:1" fill="#8c9297" d="M 392.5,395.5 C 395.287,394.523 398.287,394.19 401.5,394.5C 401.737,395.791 401.404,396.791 400.5,397.5C 398.365,395.631 395.698,394.964 392.5,395.5 Z"/></g>
<g><path style="opacity:1" fill="#b1b7be" d="M 459.5,393.5 C 459.5,393.833 459.5,394.167 459.5,394.5C 455.09,394.031 451.09,395.031 447.5,397.5C 445.132,395.777 442.466,395.11 439.5,395.5C 445.979,394.402 452.646,393.735 459.5,393.5 Z"/></g>
<g><path style="opacity:1" fill="#6f757d" d="M 502.5,395.5 C 494.167,395.5 485.833,395.5 477.5,395.5C 477.5,397.5 477.5,399.5 477.5,401.5C 477.167,401.5 476.833,401.5 476.5,401.5C 476.5,399.167 476.5,396.833 476.5,394.5C 485.349,394.174 494.016,394.507 502.5,395.5 Z"/></g>
<g><path style="opacity:1" fill="#656b73" d="M 264.5,396.5 C 258.842,395.232 253.175,395.232 247.5,396.5C 247.918,395.778 248.584,395.278 249.5,395C 253.833,394.333 258.167,394.333 262.5,395C 263.416,395.278 264.082,395.778 264.5,396.5 Z"/></g>
<g><path style="opacity:1" fill="#464d57" d="M 528.5,395.5 C 523.463,395.413 518.463,395.746 513.5,396.5C 516.186,395.009 519.186,394.343 522.5,394.5C 524.696,394.505 526.696,394.838 528.5,395.5 Z"/></g>
<g><path style="opacity:1" fill="#12202d" d="M 117.5,382.5 C 119.833,382.5 122.167,382.5 124.5,382.5C 124.5,397.5 124.5,412.5 124.5,427.5C 122.5,427.5 120.5,427.5 118.5,427.5C 118.719,426.325 118.386,425.325 117.5,424.5C 116.893,424.624 116.56,424.957 116.5,425.5C 114.938,425.733 113.605,426.4 112.5,427.5C 108.434,427.693 104.434,427.36 100.5,426.5C 96.6927,424.225 94.3593,420.892 93.5,416.5C 93.2101,412.064 93.7101,407.73 95,403.5C 97.7648,402.403 99.4314,400.403 100,397.5C 104.401,396.533 108.901,396.2 113.5,396.5C 113.833,396.5 114.167,396.5 114.5,396.5C 115.209,397.404 116.209,397.737 117.5,397.5C 117.5,392.5 117.5,387.5 117.5,382.5 Z"/></g>
<g><path style="opacity:1" fill="#16212c" d="M 133.5,395.5 C 136.167,395.5 138.833,395.5 141.5,395.5C 141.5,406.167 141.5,416.833 141.5,427.5C 138.833,427.5 136.167,427.5 133.5,427.5C 133.5,416.833 133.5,406.167 133.5,395.5 Z"/></g>
<g><path style="opacity:1" fill="#172230" d="M 193.5,395.5 C 193.409,397.698 194.075,398.031 195.5,396.5C 199.434,395.64 203.434,395.307 207.5,395.5C 207.842,396.338 208.508,396.672 209.5,396.5C 210.877,399.726 212.543,400.059 214.5,397.5C 214.842,396.662 215.508,396.328 216.5,396.5C 220.099,395.656 223.766,395.323 227.5,395.5C 230.704,396.383 233.371,398.05 235.5,400.5C 235.5,401.167 235.5,401.833 235.5,402.5C 235.5,402.833 235.5,403.167 235.5,403.5C 234.356,405.1 233.189,406.767 232,408.5C 231.085,407.672 230.419,406.672 230,405.5C 229.601,405.728 229.435,406.062 229.5,406.5C 229.167,406.5 228.833,406.5 228.5,406.5C 227.974,404.77 226.974,403.436 225.5,402.5C 224.551,401.848 223.385,401.514 222,401.5C 219.992,401.307 218.492,401.974 217.5,403.5C 216.883,403.611 216.383,403.944 216,404.5C 215.667,412.167 215.333,419.833 215,427.5C 212.619,428.435 210.119,428.768 207.5,428.5C 207.666,421.159 207.5,413.826 207,406.5C 206.34,404.676 205.173,403.343 203.5,402.5C 201.372,401.371 199.039,401.204 196.5,402C 195.748,402.671 195.414,403.504 195.5,404.5C 194.883,404.611 194.383,404.944 194,405.5C 193.5,413.159 193.334,420.826 193.5,428.5C 190.941,428.802 188.607,428.468 186.5,427.5C 186.5,416.833 186.5,406.167 186.5,395.5C 188.833,395.5 191.167,395.5 193.5,395.5 Z"/></g>
<g><path style="opacity:1" fill="#787e85" d="M 412.5,394.5 C 413.167,394.5 413.833,394.5 414.5,394.5C 412.064,395.871 409.397,396.871 406.5,397.5C 408.033,395.755 410.033,394.755 412.5,394.5 Z"/></g>
<g><path style="opacity:1" fill="#19232f" d="M 414.5,394.5 C 420.575,393.372 425.575,395.039 429.5,399.5C 426.904,398.735 424.237,398.401 421.5,398.5C 421.433,399.959 421.766,401.292 422.5,402.5C 417.622,400.856 412.956,401.189 408.5,403.5C 406.625,402.46 405.292,400.96 404.5,399C 404.836,397.97 405.503,397.47 406.5,397.5C 409.397,396.871 412.064,395.871 414.5,394.5 Z"/></g>
<g><path style="opacity:1" fill="#a8aeb4" d="M 209.5,396.5 C 211.117,397.038 212.784,397.371 214.5,397.5C 212.543,400.059 210.877,399.726 209.5,396.5 Z"/></g>
<g><path style="opacity:1" fill="#eceff3" d="M 459.5,393.5 C 452.646,393.735 445.979,394.402 439.5,395.5C 439.5,406.167 439.5,416.833 439.5,427.5C 438.676,423.688 438.176,419.688 438,415.5C 437.019,412.311 435.686,411.978 434,414.5C 433.667,419.167 433.333,423.833 433,428.5C 430.395,429.814 427.895,429.814 425.5,428.5C 427.735,428.795 429.735,428.461 431.5,427.5C 432.656,419.677 432.823,411.677 432,403.5C 431.392,401.934 430.558,400.6 429.5,399.5C 425.575,395.039 420.575,393.372 414.5,394.5C 413.833,394.5 413.167,394.5 412.5,394.5C 417.844,393.322 423.011,393.322 428,394.5C 431.452,390.375 433.785,391.042 435,396.5C 435.667,392.5 436.333,392.5 437,396.5C 437.374,395.584 437.874,394.75 438.5,394C 443.836,393.53 449.17,393.03 454.5,392.5C 456.369,392.507 458.036,392.84 459.5,393.5 Z"/></g>
<g><path style="opacity:1" fill="#39434d" d="M 113.5,396.5 C 108.901,396.2 104.401,396.533 100,397.5C 99.4314,400.403 97.7648,402.403 95,403.5C 93.7101,407.73 93.2101,412.064 93.5,416.5C 90.7059,407.389 93.3726,400.222 101.5,395C 105.806,394.088 109.806,394.588 113.5,396.5 Z"/></g>
<g><path style="opacity:1" fill="#848c96" d="M 296.5,402.5 C 293.555,401.532 290.555,401.366 287.5,402C 286.663,403.011 286.33,404.178 286.5,405.5C 285.199,404.116 285.199,402.616 286.5,401C 289.5,400.333 292.5,400.333 295.5,401C 296.056,401.383 296.389,401.883 296.5,402.5 Z"/></g>
<g><path style="opacity:1" fill="#a7aeb5" d="M 225.5,402.5 C 222.763,402.401 220.096,402.735 217.5,403.5C 218.492,401.974 219.992,401.307 222,401.5C 223.385,401.514 224.551,401.848 225.5,402.5 Z"/></g>
<g><path style="opacity:1" fill="#a1a7ad" d="M 476.5,401.5 C 476.833,401.5 477.167,401.5 477.5,401.5C 482.214,401.173 486.88,401.507 491.5,402.5C 491.376,403.107 491.043,403.44 490.5,403.5C 485.833,402.833 481.167,402.167 476.5,401.5 Z"/></g>
<g><path style="opacity:1" fill="#939ba3" d="M 112.5,402.5 C 109.43,402.368 106.43,402.701 103.5,403.5C 103.611,402.883 103.944,402.383 104.5,402C 107.367,401.199 110.034,401.366 112.5,402.5 Z"/></g>
<g><path style="opacity:1" fill="#a4aab2" d="M 203.5,402.5 C 200.487,402.107 197.82,402.774 195.5,404.5C 195.414,403.504 195.748,402.671 196.5,402C 199.039,401.204 201.372,401.371 203.5,402.5 Z"/></g>
<g><path style="opacity:1" fill="#eef1f5" d="M 235.5,400.5 C 237.167,400.5 238.833,400.5 240.5,400.5C 240.104,403.482 240.771,406.149 242.5,408.5C 242.675,406.119 243.009,403.452 243.5,400.5C 244.626,401.714 245.959,402.714 247.5,403.5C 251.595,401.556 255.928,401.056 260.5,402C 262.607,403.264 263.607,405.097 263.5,407.5C 258.821,407.334 254.155,407.501 249.5,408C 248.584,408.278 247.918,408.778 247.5,409.5C 241.498,412.543 239.998,417.21 243,423.5C 244.517,425.24 246.017,426.906 247.5,428.5C 244.962,427.323 242.629,425.656 240.5,423.5C 239.094,425.566 237.76,427.732 236.5,430C 235.167,430.167 233.833,430.333 232.5,430.5C 230.667,430.415 229.334,429.748 228.5,428.5C 231.167,428.5 233.833,428.5 236.5,428.5C 236.826,419.651 236.493,410.984 235.5,402.5C 235.5,401.833 235.5,401.167 235.5,400.5 Z"/></g>
<g><path style="opacity:1" fill="#17212f" d="M 301.5,397.5 C 302.698,402.123 301.031,403.789 296.5,402.5C 296.389,401.883 296.056,401.383 295.5,401C 292.5,400.333 289.5,400.333 286.5,401C 285.199,402.616 285.199,404.116 286.5,405.5C 286.5,406.167 286.833,406.5 287.5,406.5C 289.515,407.924 291.848,408.59 294.5,408.5C 296.953,409.217 299.287,410.384 301.5,412C 303.141,413.129 304.141,414.629 304.5,416.5C 304.814,420.532 303.481,423.865 300.5,426.5C 294.194,429.105 287.861,429.105 281.5,426.5C 281.714,424.856 281.38,423.356 280.5,422C 282.134,421.506 283.801,421.34 285.5,421.5C 288.85,421.665 292.183,421.498 295.5,421C 296.86,419.062 296.527,417.396 294.5,416C 291.148,415.162 287.815,414.329 284.5,413.5C 284.027,412.094 283.027,411.427 281.5,411.5C 275.841,405.979 276.174,400.979 282.5,396.5C 288.915,395.083 295.248,395.416 301.5,397.5 Z"/></g>
<g><path style="opacity:1" fill="#f4f6f7" d="M 112.5,402.5 C 116.027,404.058 117.36,406.891 116.5,411C 116.333,413.167 116.167,415.333 116,417.5C 115.578,419.426 114.411,420.426 112.5,420.5C 108.885,420.845 105.552,420.178 102.5,418.5C 99.5973,413.212 99.9307,408.212 103.5,403.5C 106.43,402.701 109.43,402.368 112.5,402.5 Z"/></g>
<g><path style="opacity:1" fill="#111b29" d="M 168.5,395.5 C 178.519,399.537 182.185,406.87 179.5,417.5C 177.271,421.075 174.605,424.408 171.5,427.5C 170.167,427.5 168.833,427.5 167.5,427.5C 164.15,427.665 160.817,427.498 157.5,427C 156.075,425.286 156.408,423.953 158.5,423C 162.528,422.608 166.528,422.108 170.5,421.5C 170.5,420.5 170.5,419.5 170.5,418.5C 171.777,417.306 172.444,415.64 172.5,413.5C 172.493,411.631 172.16,409.964 171.5,408.5C 171.378,405.708 170.044,403.708 167.5,402.5C 156.533,401.171 152.533,406.171 155.5,417.5C 155.38,418.586 154.713,419.253 153.5,419.5C 148.521,417.628 146.521,413.961 147.5,408.5C 147.372,406.345 147.872,404.345 149,402.5C 150.076,399.921 151.909,398.254 154.5,397.5C 159.007,395.887 163.673,395.221 168.5,395.5 Z"/></g>
<g><path style="opacity:1" fill="#f7f8f9" d="M 167.5,402.5 C 170.044,403.708 171.378,405.708 171.5,408.5C 171.658,411.902 171.324,415.236 170.5,418.5C 165.31,422.759 160.643,422.425 156.5,417.5C 155.708,411.976 157.041,407.143 160.5,403C 162.81,402.503 165.143,402.337 167.5,402.5 Z"/></g>
<g><path style="opacity:1" fill="#141f2d" d="M 528.5,395.5 C 532.02,396.353 534.687,398.353 536.5,401.5C 536.5,402.167 536.5,402.833 536.5,403.5C 536.5,411.5 536.5,419.5 536.5,427.5C 534.114,427.741 532.114,427.075 530.5,425.5C 530.44,424.957 530.107,424.624 529.5,424.5C 525.462,427.926 520.795,429.259 515.5,428.5C 508.104,425.366 505.937,420.033 509,412.5C 510.129,410.859 511.629,409.859 513.5,409.5C 519.13,408.708 524.797,408.375 530.5,408.5C 530.768,406.901 530.434,405.568 529.5,404.5C 528.564,403.026 527.23,402.026 525.5,401.5C 523.034,400.366 520.367,400.199 517.5,401C 516.058,401.377 515.058,402.21 514.5,403.5C 512.027,403.264 510.36,401.931 509.5,399.5C 510.283,397.712 511.616,396.712 513.5,396.5C 518.463,395.746 523.463,395.413 528.5,395.5 Z"/></g>
<g><path style="opacity:1" fill="#707881" d="M 525.5,401.5 C 521.681,401.414 518.015,402.081 514.5,403.5C 515.058,402.21 516.058,401.377 517.5,401C 520.367,400.199 523.034,400.366 525.5,401.5 Z"/></g>
<g><path style="opacity:1" fill="#9da3aa" d="M 263.5,407.5 C 258.331,408.381 252.998,409.048 247.5,409.5C 247.918,408.778 248.584,408.278 249.5,408C 254.155,407.501 258.821,407.334 263.5,407.5 Z"/></g>
<g><path style="opacity:1" fill="#abb0b5" d="M 287.5,406.5 C 290.152,406.41 292.485,407.076 294.5,408.5C 291.848,408.59 289.515,407.924 287.5,406.5 Z"/></g>
<g><path style="opacity:1" fill="#888f98" d="M 423.5,404.5 C 424.434,405.568 424.768,406.901 424.5,408.5C 418.346,408.1 412.346,408.767 406.5,410.5C 407.058,409.21 408.058,408.377 409.5,408C 414.155,407.501 418.821,407.334 423.5,407.5C 423.5,406.5 423.5,405.5 423.5,404.5 Z"/></g>
<g><path style="opacity:1" fill="#7f868f" d="M 529.5,404.5 C 530.434,405.568 530.768,406.901 530.5,408.5C 524.797,408.375 519.13,408.708 513.5,409.5C 513.918,408.778 514.584,408.278 515.5,408C 520.155,407.501 524.821,407.334 529.5,407.5C 529.5,406.5 529.5,405.5 529.5,404.5 Z"/></g>
<g><path style="opacity:1" fill="#161f2d" d="M 375.5,395.5 C 377.265,402.968 380.098,409.968 384,416.5C 386.352,409.271 389.185,402.271 392.5,395.5C 395.698,394.964 398.365,395.631 400.5,397.5C 395.373,407.431 391.039,417.764 387.5,428.5C 384.833,428.5 382.167,428.5 379.5,428.5C 376.291,417.877 372.291,407.543 367.5,397.5C 369.635,395.631 372.302,394.964 375.5,395.5 Z"/></g>
<g><path style="opacity:1" fill="#4b525d" d="M 536.5,403.5 C 537.492,411.316 537.826,419.316 537.5,427.5C 535.167,428.833 532.833,428.833 530.5,427.5C 530.5,426.833 530.5,426.167 530.5,425.5C 532.114,427.075 534.114,427.741 536.5,427.5C 536.5,419.5 536.5,411.5 536.5,403.5 Z"/></g>
<g><path style="opacity:1" fill="#848a91" d="M 193.5,395.5 C 191.167,395.5 188.833,395.5 186.5,395.5C 186.5,406.167 186.5,416.833 186.5,427.5C 185.505,416.679 185.172,405.679 185.5,394.5C 188.385,394.194 191.052,394.527 193.5,395.5 Z"/></g>
<g><path style="opacity:1" fill="#bbc0c6" d="M 167.5,402.5 C 165.143,402.337 162.81,402.503 160.5,403C 157.041,407.143 155.708,411.976 156.5,417.5C 156.167,417.5 155.833,417.5 155.5,417.5C 152.533,406.171 156.533,401.171 167.5,402.5 Z"/></g>
<g><path style="opacity:1" fill="#101b27" d="M 459.5,394.5 C 464.551,395.677 467.885,398.677 469.5,403.5C 469.5,411.5 469.5,419.5 469.5,427.5C 467.167,427.5 464.833,427.5 462.5,427.5C 462.795,420.412 462.462,413.412 461.5,406.5C 461.141,404.629 460.141,403.129 458.5,402C 455.833,401.333 453.167,401.333 450.5,402C 449.944,402.383 449.611,402.883 449.5,403.5C 448.778,403.918 448.278,404.584 448,405.5C 447.5,412.826 447.334,420.159 447.5,427.5C 444.833,427.5 442.167,427.5 439.5,427.5C 439.5,416.833 439.5,406.167 439.5,395.5C 442.466,395.11 445.132,395.777 447.5,397.5C 451.09,395.031 455.09,394.031 459.5,394.5 Z"/></g>
<g><path style="opacity:1" fill="#c5c9d0" d="M 461.5,406.5 C 458.073,403.769 454.073,402.769 449.5,403.5C 449.611,402.883 449.944,402.383 450.5,402C 453.167,401.333 455.833,401.333 458.5,402C 460.141,403.129 461.141,404.629 461.5,406.5 Z"/></g>
<g><path style="opacity:1" fill="#101c26" d="M 78.5,383.5 C 80.8333,383.5 83.1667,383.5 85.5,383.5C 85.5,398.167 85.5,412.833 85.5,427.5C 83.1667,427.5 80.8333,427.5 78.5,427.5C 78.5,412.833 78.5,398.167 78.5,383.5 Z"/></g>
<g><path style="opacity:1" fill="#8b8f96" d="M 281.5,411.5 C 283.027,411.427 284.027,412.094 284.5,413.5C 282.973,413.573 281.973,412.906 281.5,411.5 Z"/></g>
<g><path style="opacity:1" fill="#131d2a" d="M 356.5,420.5 C 348.677,419.344 340.677,419.177 332.5,420C 331.009,422.308 330.009,424.808 329.5,427.5C 326.941,427.802 324.607,427.468 322.5,426.5C 328.038,412.417 333.872,398.417 340,384.5C 343,383.167 346,383.167 349,384.5C 356.022,398.869 362.189,413.536 367.5,428.5C 364.833,428.5 362.167,428.5 359.5,428.5C 359.585,425.351 358.585,422.684 356.5,420.5 Z"/></g>
<g><path style="opacity:1" fill="#878f97" d="M 337.5,410.5 C 342.305,411.487 347.305,411.821 352.5,411.5C 347.32,412.815 341.986,412.815 336.5,411.5C 336.624,410.893 336.957,410.56 337.5,410.5 Z"/></g>
<g><path style="opacity:1" fill="#f1f4f4" d="M 348.5,402.5 C 350.625,405.088 351.958,408.088 352.5,411.5C 347.305,411.821 342.305,411.487 337.5,410.5C 337.402,408.447 338.069,406.78 339.5,405.5C 340.15,405.196 340.817,404.863 341.5,404.5C 342.205,402.328 343.205,400.328 344.5,398.5C 345.84,399.867 347.173,401.2 348.5,402.5 Z"/></g>
<g><path style="opacity:1" fill="#d0d4da" d="M 348.5,402.5 C 347.173,401.2 345.84,399.867 344.5,398.5C 343.205,400.328 342.205,402.328 341.5,404.5C 340.817,404.863 340.15,405.196 339.5,405.5C 340.349,401.467 342.016,397.801 344.5,394.5C 346.777,396.643 348.11,399.31 348.5,402.5 Z"/></g>
<g><path style="opacity:1" fill="#141e2b" d="M 264.5,396.5 C 267.522,397.522 269.522,399.522 270.5,402.5C 270.5,410.5 270.5,418.5 270.5,426.5C 268.833,426.5 267.167,426.5 265.5,426.5C 264.36,423.975 263.693,421.308 263.5,418.5C 263.5,418.167 263.5,417.833 263.5,417.5C 264.434,416.432 264.768,415.099 264.5,413.5C 260.154,413.334 255.821,413.501 251.5,414C 250.944,414.383 250.611,414.883 250.5,415.5C 249.122,417.97 249.455,420.304 251.5,422.5C 254.641,423.321 257.975,423.821 261.5,424C 262.056,424.383 262.389,424.883 262.5,425.5C 261.833,426.167 261.167,426.833 260.5,427.5C 256.566,428.36 252.566,428.693 248.5,428.5C 248.167,428.5 247.833,428.5 247.5,428.5C 246.017,426.906 244.517,425.24 243,423.5C 239.998,417.21 241.498,412.543 247.5,409.5C 252.998,409.048 258.331,408.381 263.5,407.5C 263.607,405.097 262.607,403.264 260.5,402C 255.928,401.056 251.595,401.556 247.5,403.5C 245.959,402.714 244.626,401.714 243.5,400.5C 243.833,398.167 245.167,396.833 247.5,396.5C 253.175,395.232 258.842,395.232 264.5,396.5 Z"/></g>
<g><path style="opacity:1" fill="#9ba0a8" d="M 263.5,417.5 C 263.5,416.5 263.5,415.5 263.5,414.5C 259.102,414.294 254.768,414.627 250.5,415.5C 250.611,414.883 250.944,414.383 251.5,414C 255.821,413.501 260.154,413.334 264.5,413.5C 264.768,415.099 264.434,416.432 263.5,417.5 Z"/></g>
<g><path style="opacity:1" fill="#f1f2f4" d="M 263.5,417.5 C 263.5,417.833 263.5,418.167 263.5,418.5C 260.271,421.925 256.271,423.258 251.5,422.5C 249.455,420.304 249.122,417.97 250.5,415.5C 254.768,414.627 259.102,414.294 263.5,414.5C 263.5,415.5 263.5,416.5 263.5,417.5 Z"/></g>
<g><path style="opacity:1" fill="#e5eaed" d="M 517.5,413.5 C 521.5,413.5 525.5,413.5 529.5,413.5C 529.557,419.342 526.557,422.342 520.5,422.5C 515.144,421.098 514.144,418.098 517.5,413.5 Z"/></g>
<g><path style="opacity:1" fill="#05151e" d="M 235.5,403.5 C 235.5,411.5 235.5,419.5 235.5,427.5C 233.5,427.5 231.5,427.5 229.5,427.5C 229.5,420.5 229.5,413.5 229.5,406.5C 229.435,406.062 229.601,405.728 230,405.5C 230.419,406.672 231.085,407.672 232,408.5C 233.189,406.767 234.356,405.1 235.5,403.5 Z"/></g>
<g><path style="opacity:1" fill="#515a63" d="M 171.5,408.5 C 172.16,409.964 172.493,411.631 172.5,413.5C 172.444,415.64 171.777,417.306 170.5,418.5C 171.324,415.236 171.658,411.902 171.5,408.5 Z"/></g>
<g><path style="opacity:1" fill="#d3d9dd" d="M 449.5,403.5 C 449.666,411.84 449.5,420.173 449,428.5C 447.431,429.122 445.764,429.456 444,429.5C 442.014,429.431 440.514,428.765 439.5,427.5C 442.167,427.5 444.833,427.5 447.5,427.5C 447.334,420.159 447.5,412.826 448,405.5C 448.278,404.584 448.778,403.918 449.5,403.5 Z"/></g>
<g><path style="opacity:1" fill="#d5dae1" d="M 536.5,401.5 C 537.825,405.445 538.492,409.778 538.5,414.5C 538.499,419.013 538.166,423.347 537.5,427.5C 537.826,419.316 537.492,411.316 536.5,403.5C 536.5,402.833 536.5,402.167 536.5,401.5 Z"/></g>
<g><path style="opacity:1" fill="#27323d" d="M 147.5,408.5 C 146.521,413.961 148.521,417.628 153.5,419.5C 154.713,419.253 155.38,418.586 155.5,417.5C 155.833,417.5 156.167,417.5 156.5,417.5C 160.643,422.425 165.31,422.759 170.5,418.5C 170.5,419.5 170.5,420.5 170.5,421.5C 166.528,422.108 162.528,422.608 158.5,423C 156.408,423.953 156.075,425.286 157.5,427C 160.817,427.498 164.15,427.665 167.5,427.5C 164.024,428.643 160.358,428.81 156.5,428C 155.429,427.148 154.429,426.315 153.5,425.5C 152.167,423.5 150.5,421.833 148.5,420.5C 146.629,416.469 146.296,412.469 147.5,408.5 Z"/></g>
<g><path style="opacity:1" fill="#767f86" d="M 469.5,403.5 C 470.493,411.65 470.826,419.983 470.5,428.5C 467.615,428.806 464.948,428.473 462.5,427.5C 464.833,427.5 467.167,427.5 469.5,427.5C 469.5,419.5 469.5,411.5 469.5,403.5 Z"/></g>
<g><path style="opacity:1" fill="#2c363f" d="M 285.5,421.5 C 283.801,421.34 282.134,421.506 280.5,422C 281.38,423.356 281.714,424.856 281.5,426.5C 277.653,425.476 276.653,423.143 278.5,419.5C 281.407,418.144 283.741,418.81 285.5,421.5 Z"/></g>
<g><path style="opacity:1" fill="#b0b6bb" d="M 102.5,418.5 C 105.552,420.178 108.885,420.845 112.5,420.5C 110.034,421.634 107.367,421.801 104.5,421C 103.619,420.292 102.953,419.458 102.5,418.5 Z"/></g>
<g><path style="opacity:1" fill="#e4e8eb" d="M 356.5,420.5 C 348.852,421.147 341.185,421.647 333.5,422C 332.198,424.213 331.198,426.546 330.5,429C 327.304,429.805 324.304,429.638 321.5,428.5C 324.385,428.806 327.052,428.473 329.5,427.5C 330.009,424.808 331.009,422.308 332.5,420C 340.677,419.177 348.677,419.344 356.5,420.5 Z"/></g>
<g><path style="opacity:1" fill="#16202d" d="M 429.5,399.5 C 430.558,400.6 431.392,401.934 432,403.5C 432.823,411.677 432.656,419.677 431.5,427.5C 429.5,427.5 427.5,427.5 425.5,427.5C 425.719,426.325 425.386,425.325 424.5,424.5C 420.549,428.062 415.883,429.395 410.5,428.5C 403.579,426.329 401.079,421.663 403,414.5C 403.66,412.676 404.827,411.343 406.5,410.5C 412.346,408.767 418.346,408.1 424.5,408.5C 424.768,406.901 424.434,405.568 423.5,404.5C 423.167,403.833 422.833,403.167 422.5,402.5C 421.766,401.292 421.433,399.959 421.5,398.5C 424.237,398.401 426.904,398.735 429.5,399.5 Z"/></g>
<g><path style="opacity:1" fill="#f2f6f8" d="M 423.5,418.5 C 423.167,419.167 422.833,419.833 422.5,420.5C 419.236,421.324 415.902,421.658 412.5,421.5C 411.053,420.866 410.387,419.699 410.5,418C 410.528,416.93 410.861,416.097 411.5,415.5C 415.434,414.64 419.434,414.307 423.5,414.5C 423.5,415.833 423.5,417.167 423.5,418.5 Z"/></g>
<g><path style="opacity:1" fill="#afb6be" d="M 423.5,418.5 C 423.5,417.167 423.5,415.833 423.5,414.5C 419.434,414.307 415.434,414.64 411.5,415.5C 411.611,414.883 411.944,414.383 412.5,414C 416.486,413.501 420.486,413.334 424.5,413.5C 424.784,415.415 424.451,417.081 423.5,418.5 Z"/></g>
<g><path style="opacity:1" fill="#81888f" d="M 486.5,419.5 C 492.167,420.167 497.833,420.833 503.5,421.5C 497.463,421.829 491.463,421.496 485.5,420.5C 485.624,419.893 485.957,419.56 486.5,419.5 Z"/></g>
<g><path style="opacity:1" fill="#a3aaad" d="M 148.5,420.5 C 150.5,421.833 152.167,423.5 153.5,425.5C 150.833,424.833 149.167,423.167 148.5,420.5 Z"/></g>
<g><path style="opacity:1" fill="#626a73" d="M 422.5,420.5 C 422.389,421.117 422.056,421.617 421.5,422C 418.304,422.805 415.304,422.638 412.5,421.5C 415.902,421.658 419.236,421.324 422.5,420.5 Z"/></g>
<g><path style="opacity:1" fill="#49545a" d="M 235.5,402.5 C 236.493,410.984 236.826,419.651 236.5,428.5C 233.833,428.5 231.167,428.5 228.5,428.5C 228.5,421.167 228.5,413.833 228.5,406.5C 228.833,406.5 229.167,406.5 229.5,406.5C 229.5,413.5 229.5,420.5 229.5,427.5C 231.5,427.5 233.5,427.5 235.5,427.5C 235.5,419.5 235.5,411.5 235.5,403.5C 235.5,403.167 235.5,402.833 235.5,402.5 Z"/></g>
<g><path style="opacity:1" fill="#172330" d="M 502.5,395.5 C 502.662,397.527 502.495,399.527 502,401.5C 496.624,407.372 491.457,413.372 486.5,419.5C 485.957,419.56 485.624,419.893 485.5,420.5C 491.463,421.496 497.463,421.829 503.5,421.5C 503.5,423.833 503.5,426.167 503.5,428.5C 494.167,428.5 484.833,428.5 475.5,428.5C 475.336,425.813 475.503,423.146 476,420.5C 480.841,414.802 485.675,409.135 490.5,403.5C 491.043,403.44 491.376,403.107 491.5,402.5C 486.88,401.507 482.214,401.173 477.5,401.5C 477.5,399.5 477.5,397.5 477.5,395.5C 485.833,395.5 494.167,395.5 502.5,395.5 Z"/></g>
<g><path style="opacity:1" fill="#aeb5ba" d="M 179.5,417.5 C 178.723,422.283 176.057,425.617 171.5,427.5C 174.605,424.408 177.271,421.075 179.5,417.5 Z"/></g>
<g><path style="opacity:1" fill="#252e39" d="M 270.5,402.5 C 271.493,410.65 271.826,418.983 271.5,427.5C 269.167,427.5 266.833,427.5 264.5,427.5C 264.869,425.007 264.203,424.34 262.5,425.5C 262.389,424.883 262.056,424.383 261.5,424C 257.975,423.821 254.641,423.321 251.5,422.5C 256.271,423.258 260.271,421.925 263.5,418.5C 263.693,421.308 264.36,423.975 265.5,426.5C 267.167,426.5 268.833,426.5 270.5,426.5C 270.5,418.5 270.5,410.5 270.5,402.5 Z"/></g>
<g><path style="opacity:1" fill="#c2c6ca" d="M 304.5,416.5 C 305.634,418.966 305.801,421.633 305,424.5C 303.67,425.582 302.17,426.249 300.5,426.5C 303.481,423.865 304.814,420.532 304.5,416.5 Z"/></g>
<g><path style="opacity:1" fill="#4c565d" d="M 100.5,426.5 C 104.434,427.36 108.434,427.693 112.5,427.5C 110.052,428.473 107.385,428.806 104.5,428.5C 102.62,428.771 101.287,428.104 100.5,426.5 Z"/></g>
<g><path style="opacity:1" fill="#7f888d" d="M 322.5,426.5 C 324.607,427.468 326.941,427.802 329.5,427.5C 327.052,428.473 324.385,428.806 321.5,428.5C 321.328,427.508 321.662,426.842 322.5,426.5 Z"/></g>
<g><path style="opacity:1" fill="#b5bcc1" d="M 431.5,427.5 C 429.735,428.461 427.735,428.795 425.5,428.5C 420.341,429.532 415.341,429.532 410.5,428.5C 415.883,429.395 420.549,428.062 424.5,424.5C 425.386,425.325 425.719,426.325 425.5,427.5C 427.5,427.5 429.5,427.5 431.5,427.5 Z"/></g>
<g><path style="opacity:1" fill="#b5bcc1" d="M 530.5,425.5 C 530.5,426.167 530.5,426.833 530.5,427.5C 527.072,428.474 523.572,429.141 520,429.5C 518.293,429.492 516.793,429.158 515.5,428.5C 520.795,429.259 525.462,427.926 529.5,424.5C 530.107,424.624 530.44,424.957 530.5,425.5 Z"/></g>
<g><path style="opacity:1" fill="#c3c8cd" d="M 116.5,425.5 C 115.859,426.482 115.193,427.482 114.5,428.5C 111.02,429.806 107.687,429.806 104.5,428.5C 107.385,428.806 110.052,428.473 112.5,427.5C 113.605,426.4 114.938,425.733 116.5,425.5 Z"/></g>
<g><path style="opacity:1" fill="#c2c8ce" d="M 116.5,425.5 C 116.56,424.957 116.893,424.624 117.5,424.5C 118.386,425.325 118.719,426.325 118.5,427.5C 120.5,427.5 122.5,427.5 124.5,427.5C 124.833,427.5 125.167,427.5 125.5,427.5C 123.365,429.369 120.698,430.036 117.5,429.5C 117.768,427.901 117.434,426.568 116.5,425.5 Z"/></g>
<g><path style="opacity:1" fill="#a0a5aa" d="M 260.5,427.5 C 260.389,428.117 260.056,428.617 259.5,429C 255.642,429.81 251.976,429.643 248.5,428.5C 252.566,428.693 256.566,428.36 260.5,427.5 Z"/></g>
<g><path style="opacity:1" fill="#abb0b5" d="M 281.5,426.5 C 287.861,429.105 294.194,429.105 300.5,426.5C 300.119,427.931 299.119,428.764 297.5,429C 293.778,429.238 290.111,429.738 286.5,430.5C 284.581,429.388 282.914,428.054 281.5,426.5 Z"/></g>
</svg>
